<svg xmlns="http://www.w3.org/2000/svg" viewBox="0 0 500 500"><g id="freepik--background-simple--inject-36"><path d="M426.07,244c1.34-6,31.4-140.4,38.2-173.71,7-34.07-2.09-40.33-17.39-35.47,0,0-141,25.44-197.41,28S43.54,16.09,35.89,32.78,70.56,202.16,74.78,240.56c.14,1.23.27,2.39.4,3.48-.13,1.09-.26,2.24-.4,3.48-4.22,38.4-46.54,191.09-38.89,207.78s157.16-32.69,213.58-30.11,197.41,28,197.41,28c15.3,4.87,24.34-1.39,17.39-35.47C457.47,384.43,427.41,250,426.07,244Z" style="fill:#77FFC0"></path><path d="M426.07,244c1.34-6,31.4-140.4,38.2-173.71,7-34.07-2.09-40.33-17.39-35.47,0,0-141,25.44-197.41,28S43.54,16.09,35.89,32.78,70.56,202.16,74.78,240.56c.14,1.23.27,2.39.4,3.48-.13,1.09-.26,2.24-.4,3.48-4.22,38.4-46.54,191.09-38.89,207.78s157.16-32.69,213.58-30.11,197.41,28,197.41,28c15.3,4.87,24.34-1.39,17.39-35.47C457.47,384.43,427.41,250,426.07,244Z" style="fill:#fff;opacity:0.7000000000000001"></path></g><g id="freepik--Skull--inject-36"><path d="M358,158.06h0c-10-16.45-26.26-26.24-43.63-26.24H195.85c-17.36,0-33.64,9.79-43.62,26.24h0a69.35,69.35,0,0,0-9.43,41.72l6.08,69.53a57.5,57.5,0,0,0,13.32,32.52l1.82,2.11c8.35,9.67,19.58,15.28,31.38,15.68L202.16,387c1.2,9.51,6,17.9,13.09,22.88h0a25,25,0,0,0,14.39,4.65h51a25,25,0,0,0,14.4-4.65h0c7.09-5,11.89-13.37,13.08-22.88l6.77-67.35c11.8-.4,23-6,31.38-15.68l1.82-2.11a57.5,57.5,0,0,0,13.32-32.52l6.07-69.53A69.27,69.27,0,0,0,358,158.06Z" style="fill:#fff;stroke:#263238;stroke-miterlimit:10"></path><ellipse cx="208.1" cy="240.73" rx="32.85" ry="38.16" transform="translate(-108.19 205.81) rotate(-42.86)" style="fill:#263238"></ellipse><ellipse cx="304.86" cy="240.73" rx="38.16" ry="32.85" transform="translate(-78.97 300.46) rotate(-47.14)" style="fill:#263238"></ellipse><path d="M255.13,258.17c-1.88,2.29-20.18,24.82-18.75,35.9,1.19,9.12,13.43-.21,18.75-4.74,5.31,4.53,17.56,13.86,18.74,4.74C275.31,283,257,260.46,255.13,258.17Z" style="fill:#263238"></path><path d="M305.54,360.67c0,13.19-4.07,23.89-9.08,23.89s-9.09-10.7-9.09-23.89,11.2-28.13,16.21-28.13S305.54,347.47,305.54,360.67Z" style="fill:#263238"></path><path d="M222.88,360.67c0,13.19-4.06,23.89-9.08,23.89s-9.08-10.7-9.08-23.89-2.63-26.23,2.39-26.23S222.88,347.47,222.88,360.67Z" style="fill:#263238"></path><path d="M223,365.14s-2.79,14.22,5,17.93,11.87-6.18,10.75-17.93C238.77,365.14,228,363.28,223,365.14Z" style="fill:#77FFC0;stroke:#263238;stroke-miterlimit:10"></path><path d="M239.73,365.14s-2.78,14.22,5,17.93,11.12-6.8,10-18.55C254.75,364.52,244.74,363.28,239.73,365.14Z" style="fill:#77FFC0;stroke:#263238;stroke-miterlimit:10"></path><path d="M270.69,365.14s2.78,14.22-5,17.93-11.12-6.8-10-18.55C255.67,364.52,265.68,363.28,270.69,365.14Z" style="fill:#77FFC0;stroke:#263238;stroke-miterlimit:10"></path><path d="M287.62,365.14s2.78,14.22-5,17.93-12.47-6.18-11.36-17.93C271.26,365.14,282.62,363.28,287.62,365.14Z" style="fill:#77FFC0;stroke:#263238;stroke-miterlimit:10"></path><path d="M223,358.16s-2.78-17.66,5-22.27,11.86,7.68,10.75,22.27C238.71,358.16,228,360.47,223,358.16Z" style="fill:#77FFC0;stroke:#263238;stroke-miterlimit:10"></path><path d="M239.67,358.16s-2.78-17.66,5-22.27,11.12,8.45,10,23C254.69,358.93,244.68,360.47,239.67,358.16Z" style="fill:#77FFC0;stroke:#263238;stroke-miterlimit:10"></path><path d="M270.63,358.16s2.78-17.66-5-22.27-11.13,8.45-10,23C255.61,358.93,265.62,360.47,270.63,358.16Z" style="fill:#77FFC0;stroke:#263238;stroke-miterlimit:10"></path><path d="M287.56,358.16s2.78-17.66-5-22.27-12.46,7.68-11.35,22.27C271.2,358.16,282.55,360.47,287.56,358.16Z" style="fill:#77FFC0;stroke:#263238;stroke-miterlimit:10"></path><rect x="220.53" y="357.32" width="71.9" height="10.56" style="fill:#263238"></rect><path d="M240.87,388.23c0,1.56-2.23,8.83-2.23,8.83s-2.23-7.27-2.23-8.83a2.29,2.29,0,1,1,4.46,0Z" style="fill:#263238"></path><path d="M257.37,388.23c0,1.56-2.24,8.83-2.24,8.83s-2.23-7.27-2.23-8.83a2.29,2.29,0,1,1,4.47,0Z" style="fill:#263238"></path><path d="M273.47,388.23c0,1.56-2.23,8.83-2.23,8.83s-2.23-7.27-2.23-8.83a2.29,2.29,0,1,1,4.46,0Z" style="fill:#263238"></path><path d="M240.87,331.72c0-1.81-2.23-10.31-2.23-10.31s-2.23,8.5-2.23,10.31,1,3.29,2.23,3.29S240.87,333.54,240.87,331.72Z" style="fill:#263238"></path><path d="M257.37,331.72c0-1.81-2.24-10.31-2.24-10.31s-2.23,8.5-2.23,10.31,1,3.29,2.23,3.29S257.37,333.54,257.37,331.72Z" style="fill:#263238"></path><path d="M273.47,331.72c0-1.81-2.23-10.31-2.23-10.31s-2.23,8.5-2.23,10.31,1,3.29,2.23,3.29S273.47,333.54,273.47,331.72Z" style="fill:#263238"></path><path d="M268.05,304.39a19.19,19.19,0,0,0,6.19.38c4.17-.35,8.3-1.59,12.65-2.55a45.64,45.64,0,0,1,6.79-1,23.2,23.2,0,0,1,7.27.62,14.37,14.37,0,0,1,6.92,3.94,14.09,14.09,0,0,1,3.62,7.39,18,18,0,0,1-.49,8,18.34,18.34,0,0,1-3.89,7.16,16.59,16.59,0,0,1-3.24,2.77A15.89,15.89,0,0,1,300,332.9a15,15,0,0,1-8.69.13,13.88,13.88,0,0,1-2.11-.85,15.72,15.72,0,0,1-1.92-1.15,11.92,11.92,0,0,1-3.18-3.41,10.86,10.86,0,0,1-1.51-4.38,11.2,11.2,0,0,1,.33-4.34,12.07,12.07,0,0,1,4.48-6.53,9.79,9.79,0,0,1,7-1.92l.1.78a9.49,9.49,0,0,0-6,8.61c.07,3.28,2.06,4.94,4.85,5.5a9.39,9.39,0,0,0,4.23-.35,10.79,10.79,0,0,0,7.65-11,8,8,0,0,0-1.66-4.37,8.86,8.86,0,0,0-4.12-2.77,18.52,18.52,0,0,0-5.66-1,41.3,41.3,0,0,0-6.22.32c-4.25.43-8.67,1.29-13.24,1.12a21.28,21.28,0,0,1-6.74-1.26,17.61,17.61,0,0,1-5.7-3.65l.51-.6A16.48,16.48,0,0,0,268.05,304.39Z" style="fill:#263238"></path><path d="M326.21,283.53a14.55,14.55,0,0,1,2,6.25,14.94,14.94,0,0,1-.79,6.41,11.35,11.35,0,0,1-3.94,5.36c-.47.31-.94.63-1.43.9l-1.53.64a15.26,15.26,0,0,1-3.07.6,18.36,18.36,0,0,1-5.69-.56,36,36,0,0,1-5-1.73,76.91,76.91,0,0,0-9-3.69,14.55,14.55,0,0,0-4.58-.61,12.15,12.15,0,0,0-4.56,1.13l-.4-.69a13.54,13.54,0,0,1,4.74-2.1,16.38,16.38,0,0,1,5.27-.18c3.5.41,6.73,1.58,9.85,2.38s6.12,1.37,8.72.81a5.28,5.28,0,0,0,4.56-4.19,7.25,7.25,0,0,0-1.67-6.27,8.29,8.29,0,0,0-2.32-1.78,6.68,6.68,0,0,0-2.58-.74,2.42,2.42,0,0,0-.6,0,6.17,6.17,0,0,1-.64.09,2.34,2.34,0,0,1-.55.15,2.37,2.37,0,0,1-.48.23,3.29,3.29,0,0,0-1.45,2.05,6.84,6.84,0,0,0,2.74,7.1l-.23.76a7.46,7.46,0,0,1-5.31-2.18A9.48,9.48,0,0,1,305.5,288l-.08-.87,0-.88a7.74,7.74,0,0,1,.32-1.81,8.25,8.25,0,0,1,.7-1.77,12.09,12.09,0,0,1,1.09-1.62,15.38,15.38,0,0,1,1.43-1.36c.52-.36,1.07-.7,1.63-1s1.13-.46,1.71-.67a9.62,9.62,0,0,1,1.84-.42A12.48,12.48,0,0,1,326.21,283.53Z" style="fill:#263238"></path><path d="M267.43,307.88a1.23,1.23,0,0,1-2.37-.65,1.23,1.23,0,0,1,2.37.65Z" style="fill:#263238"></path><path d="M271,308.66a1.23,1.23,0,1,1-1-1.42A1.22,1.22,0,0,1,271,308.66Z" style="fill:#263238"></path><path d="M274.65,309.23a1.23,1.23,0,0,1-2.43-.35,1.23,1.23,0,0,1,2.43.35Z" style="fill:#263238"></path><path d="M277.16,308.24a1.24,1.24,0,0,1,1.15,1.27,1.23,1.23,0,1,1-2.45-.15A1.24,1.24,0,0,1,277.16,308.24Z" style="fill:#263238"></path><path d="M280.71,308.3a1.23,1.23,0,0,1,1.27,1.13,1.23,1.23,0,1,1-2.45.1A1.23,1.23,0,0,1,280.71,308.3Z" style="fill:#263238"></path><path d="M284.25,308a1.22,1.22,0,0,1,1.37,1,1.22,1.22,0,1,1-2.42.33A1.22,1.22,0,0,1,284.25,308Z" style="fill:#263238"></path><path d="M287.84,307.39a1.21,1.21,0,1,1-1,1.4A1.23,1.23,0,0,1,287.84,307.39Z" style="fill:#263238"></path><path d="M291.58,306.89A1.18,1.18,0,0,1,292.9,308a1.22,1.22,0,0,1-2.44.19A1.18,1.18,0,0,1,291.58,306.89Z" style="fill:#263238"></path><path d="M295.59,307a1.26,1.26,0,0,1,.85.6,1,1,0,0,1,.08.92,1.31,1.31,0,0,1-1.43.85,1,1,0,0,1-.7-.47,1.24,1.24,0,0,1-.26-.87,1.07,1.07,0,0,1,.45-.83A1.41,1.41,0,0,1,295.59,307Z" style="fill:#263238"></path><path d="M297.41,310a1.42,1.42,0,0,1,.2-.91,1,1,0,0,1,.78-.5,1.26,1.26,0,0,1,1,.34,1.44,1.44,0,0,1,.44.95,1.08,1.08,0,0,1-.42.84,1.32,1.32,0,0,1-.87.29,1.07,1.07,0,0,1-.78-.28A1.2,1.2,0,0,1,297.41,310Z" style="fill:#263238"></path><path d="M300.12,311.74a1.22,1.22,0,1,1,1.07,2.2,1.23,1.23,0,0,1-1.07-2.2Z" style="fill:#263238"></path><path d="M300.54,316.42a1.11,1.11,0,0,1,.26-.8,1.29,1.29,0,0,1,.75-.51,1.15,1.15,0,0,1,.93.18,1.34,1.34,0,0,1,.48.92,1.23,1.23,0,0,1-.34,1,1,1,0,0,1-.87.32,1.51,1.51,0,0,1-.84-.4A1.32,1.32,0,0,1,300.54,316.42Z" style="fill:#263238"></path><path d="M300.23,320.8a1.48,1.48,0,0,1-.41-.83,1.25,1.25,0,0,1,.13-.77,1.21,1.21,0,0,1,.62-.46,1.58,1.58,0,0,1,.94,0,1,1,0,0,1,.65.66,1.22,1.22,0,0,1-.15,1.08,1.2,1.2,0,0,1-.89.62A1,1,0,0,1,300.23,320.8Z" style="fill:#263238"></path><path d="M298.68,323.26a1.26,1.26,0,0,1-1.06,0,1,1,0,0,1-.57-.74,1.45,1.45,0,0,1,.12-.92,1.17,1.17,0,0,1,.57-.57,1.19,1.19,0,0,1,.81,0,1.51,1.51,0,0,1,.74.55,1.06,1.06,0,0,1,.12.93A1.19,1.19,0,0,1,298.68,323.26Z" style="fill:#263238"></path><path d="M293.77,323.45a1.34,1.34,0,0,1-.34-.43,1,1,0,0,1,.06-.94,1.75,1.75,0,0,1,.69-.61,1,1,0,0,1,.37-.11.7.7,0,0,1,.35,0,1.43,1.43,0,0,1,.93,1.31,1.13,1.13,0,0,1-1.5,1A1.7,1.7,0,0,1,293.77,323.45Z" style="fill:#263238"></path><path d="M290.84,320.61a1.29,1.29,0,0,1,.1-1.12,1,1,0,0,1,.81-.48,1.55,1.55,0,0,1,.88.25,1.09,1.09,0,0,1,.5.55,1.07,1.07,0,0,1-.05.72,1.71,1.71,0,0,1-.51.75,1,1,0,0,1-.94.18A1.39,1.39,0,0,1,290.84,320.61Z" style="fill:#263238"></path><path d="M291,317.27a1.27,1.27,0,0,1-.09-1,1.16,1.16,0,0,1,1.64-.73,1.33,1.33,0,0,1,.66,1.51,1.17,1.17,0,0,1-.53.61,1.42,1.42,0,0,1-.91.18A1,1,0,0,1,291,317.27Z" style="fill:#263238"></path><path d="M311.71,307a1.22,1.22,0,0,1,1.39-.9,1.2,1.2,0,0,1,.91,1.39,1.18,1.18,0,1,1-2.3-.49Z" style="fill:#263238"></path><path d="M315.18,307.63a1.18,1.18,0,0,1,2.36.06,1.18,1.18,0,1,1-2.36-.06Z" style="fill:#263238"></path><path d="M318.71,307.62a1.22,1.22,0,0,1,1-1.34,1.2,1.2,0,0,1,1.34,1,1.18,1.18,0,1,1-2.32.38Z" style="fill:#263238"></path><path d="M322.83,305.41a1.21,1.21,0,0,1,1.52.63,1.19,1.19,0,0,1-.62,1.62,1.18,1.18,0,0,1-1.56-.74A1.21,1.21,0,0,1,322.83,305.41Z" style="fill:#263238"></path><path d="M325.38,305.48a1.17,1.17,0,0,1,1.92-1.35,1.18,1.18,0,1,1-1.92,1.35Z" style="fill:#263238"></path><path d="M328.21,303.37a1.27,1.27,0,0,1-.08-1.68,1.25,1.25,0,0,1,1.68,0,1.18,1.18,0,1,1-1.6,1.72Z" style="fill:#263238"></path><path d="M330.51,300.7a1.19,1.19,0,0,1-.34-1.62,1.24,1.24,0,0,1,1.63-.35,1.15,1.15,0,0,1,.41,1.66A1.21,1.21,0,0,1,330.51,300.7Z" style="fill:#263238"></path><path d="M332.34,297.68a1.23,1.23,0,0,1-.66-1.52,1.25,1.25,0,0,1,1.52-.67,1.18,1.18,0,1,1-.86,2.19Z" style="fill:#263238"></path><path d="M332.52,293a1.24,1.24,0,0,1,1.32-1,1.15,1.15,0,0,1,1.08,1.34,1.17,1.17,0,0,1-1.42,1A1.26,1.26,0,0,1,332.52,293Z" style="fill:#263238"></path><path d="M332.6,289.79a1.25,1.25,0,0,1,1.06-1.28,1.18,1.18,0,1,1,.21,2.34A1.25,1.25,0,0,1,332.6,289.79Z" style="fill:#263238"></path><path d="M332,286.6a1.24,1.24,0,0,1,.75-1.49,1.17,1.17,0,0,1,1.55.74,1.15,1.15,0,0,1-.83,1.5A1.24,1.24,0,0,1,332,286.6Z" style="fill:#263238"></path><path d="M330.62,283.6a1.22,1.22,0,0,1,.43-1.6,1.18,1.18,0,1,1,1.17,2A1.23,1.23,0,0,1,330.62,283.6Z" style="fill:#263238"></path><path d="M328.71,280.91a1.24,1.24,0,0,1,.12-1.66,1.18,1.18,0,1,1,1.54,1.79A1.24,1.24,0,0,1,328.71,280.91Z" style="fill:#263238"></path><path d="M326.33,278.64a1.23,1.23,0,0,1-.2-1.65,1.18,1.18,0,1,1,1.85,1.45A1.23,1.23,0,0,1,326.33,278.64Z" style="fill:#263238"></path><path d="M323.56,276.92a1.26,1.26,0,0,1-.56-1.56,1.18,1.18,0,1,1,2.13,1A1.27,1.27,0,0,1,323.56,276.92Z" style="fill:#263238"></path><path d="M319.56,274.61a1.18,1.18,0,1,1,2.32.38,1.26,1.26,0,0,1-1.35.95A1.28,1.28,0,0,1,319.56,274.61Z" style="fill:#263238"></path><path d="M317.21,314.2a1.22,1.22,0,0,1-1-1.5,1.33,1.33,0,0,1,2.58.5A1.22,1.22,0,0,1,317.21,314.2Z" style="fill:#263238"></path><path d="M321.43,314.48a1.22,1.22,0,0,1-1.37-1.19,1.32,1.32,0,0,1,2.62-.14A1.23,1.23,0,0,1,321.43,314.48Z" style="fill:#263238"></path><path d="M326.53,312.28a1.31,1.31,0,0,1-2.54.66,1.32,1.32,0,0,1,2.54-.66Z" style="fill:#263238"></path><path d="M330.16,310.72a1.25,1.25,0,0,1-.67,1.68,1.24,1.24,0,0,1-1.72-.58,1.3,1.3,0,0,1,.7-1.62A1.28,1.28,0,0,1,330.16,310.72Z" style="fill:#263238"></path><path d="M331.31,310.07a1.32,1.32,0,1,1,1.79.33A1.28,1.28,0,0,1,331.31,310.07Z" style="fill:#263238"></path><path d="M241.79,304.39a19.17,19.17,0,0,1-6.19.38c-4.17-.35-8.29-1.59-12.65-2.55a45.64,45.64,0,0,0-6.79-1,23.22,23.22,0,0,0-7.27.62,14.42,14.42,0,0,0-6.92,3.94,14.17,14.17,0,0,0-3.62,7.39,18.67,18.67,0,0,0,4.38,15.17,16.36,16.36,0,0,0,3.25,2.77,15.72,15.72,0,0,0,3.87,1.82,15,15,0,0,0,8.68.13,14.43,14.43,0,0,0,2.12-.85,16.52,16.52,0,0,0,1.92-1.15,11.89,11.89,0,0,0,3.17-3.41,10.86,10.86,0,0,0,1.51-4.38,11.2,11.2,0,0,0-.33-4.34,12.07,12.07,0,0,0-4.48-6.53,9.79,9.79,0,0,0-7-1.92l-.1.78a9.5,9.5,0,0,1,6,8.61c-.07,3.28-2.06,4.94-4.86,5.5a9.39,9.39,0,0,1-4.23-.35,10.79,10.79,0,0,1-7.65-11,8.08,8.08,0,0,1,1.66-4.37,8.86,8.86,0,0,1,4.12-2.77,18.57,18.57,0,0,1,5.66-1,41.24,41.24,0,0,1,6.22.32c4.25.43,8.67,1.29,13.24,1.12a21.28,21.28,0,0,0,6.74-1.26,17.5,17.5,0,0,0,5.7-3.65l-.51-.6A16.4,16.4,0,0,1,241.79,304.39Z" style="fill:#263238"></path><path d="M183.63,283.53a14.4,14.4,0,0,0-2,6.25,14.94,14.94,0,0,0,.78,6.41,11.48,11.48,0,0,0,3.94,5.36c.47.31.94.63,1.43.9l1.53.64a15.26,15.26,0,0,0,3.07.6,18.3,18.3,0,0,0,5.69-.56,36.57,36.57,0,0,0,5-1.73,76.78,76.78,0,0,1,9-3.69,14.55,14.55,0,0,1,4.58-.61,12.15,12.15,0,0,1,4.56,1.13l.4-.69a13.54,13.54,0,0,0-4.74-2.1,16.38,16.38,0,0,0-5.27-.18c-3.5.41-6.73,1.58-9.84,2.38s-6.13,1.37-8.73.81a5.29,5.29,0,0,1-4.56-4.19,7.25,7.25,0,0,1,1.67-6.27,7.52,7.52,0,0,1,4.9-2.52,2.4,2.4,0,0,1,.6,0,6.17,6.17,0,0,0,.64.09,2.42,2.42,0,0,0,.56.15,2.06,2.06,0,0,0,.47.23,3.25,3.25,0,0,1,1.45,2.05,6.84,6.84,0,0,1-2.74,7.1l.23.76a7.43,7.43,0,0,0,5.31-2.18,9.43,9.43,0,0,0,2.81-5.71l.09-.87,0-.88a9.29,9.29,0,0,0-1-3.58,11.21,11.21,0,0,0-1.09-1.62,15.38,15.38,0,0,0-1.43-1.36c-.52-.36-1.07-.7-1.63-1s-1.13-.46-1.71-.67a9.62,9.62,0,0,0-1.84-.42A12.49,12.49,0,0,0,183.63,283.53Z" style="fill:#263238"></path><path d="M242.41,307.88a1.23,1.23,0,1,0,2.37-.65,1.23,1.23,0,0,0-2.37.65Z" style="fill:#263238"></path><path d="M238.83,308.66a1.22,1.22,0,1,0,2.39-.5,1.22,1.22,0,0,0-2.39.5Z" style="fill:#263238"></path><path d="M235.2,309.23a1.22,1.22,0,0,0,2.42-.35,1.22,1.22,0,0,0-2.42.35Z" style="fill:#263238"></path><path d="M232.68,308.24a1.24,1.24,0,0,0-1.15,1.27,1.23,1.23,0,1,0,2.45-.15A1.24,1.24,0,0,0,232.68,308.24Z" style="fill:#263238"></path><path d="M229.13,308.3a1.23,1.23,0,0,0-1.27,1.13,1.23,1.23,0,1,0,2.45.1A1.23,1.23,0,0,0,229.13,308.3Z" style="fill:#263238"></path><path d="M225.59,308a1.22,1.22,0,0,0-1.37,1,1.22,1.22,0,1,0,2.42.33A1.22,1.22,0,0,0,225.59,308Z" style="fill:#263238"></path><path d="M222,307.39a1.21,1.21,0,1,0,1,1.4A1.23,1.23,0,0,0,222,307.39Z" style="fill:#263238"></path><path d="M218.26,306.89a1.18,1.18,0,0,0-1.32,1.14,1.22,1.22,0,0,0,2.44.19A1.18,1.18,0,0,0,218.26,306.89Z" style="fill:#263238"></path><path d="M214.26,307a1.31,1.31,0,0,0-.86.6,1,1,0,0,0-.07.92,1.29,1.29,0,0,0,1.42.85,1,1,0,0,0,.7-.47,1.29,1.29,0,0,0,.27-.87,1.14,1.14,0,0,0-.45-.83A1.42,1.42,0,0,0,214.26,307Z" style="fill:#263238"></path><path d="M212.44,310a1.49,1.49,0,0,0-.2-.91,1.05,1.05,0,0,0-.79-.5,1.26,1.26,0,0,0-1,.34,1.44,1.44,0,0,0-.44.95,1.11,1.11,0,0,0,.42.84,1.32,1.32,0,0,0,.87.29,1.06,1.06,0,0,0,.78-.28A1.27,1.27,0,0,0,212.44,310Z" style="fill:#263238"></path><path d="M209.73,311.74a1.23,1.23,0,1,0-1.08,2.2,1.23,1.23,0,0,0,1.08-2.2Z" style="fill:#263238"></path><path d="M209.3,316.42a1.11,1.11,0,0,0-.26-.8,1.29,1.29,0,0,0-.74-.51,1.16,1.16,0,0,0-.94.18,1.29,1.29,0,0,0-.47.92,1.2,1.2,0,0,0,.33,1,1,1,0,0,0,.87.32,1.48,1.48,0,0,0,.84-.4A1.25,1.25,0,0,0,209.3,316.42Z" style="fill:#263238"></path><path d="M209.61,320.8A1.48,1.48,0,0,0,210,320a1.25,1.25,0,0,0-.13-.77,1.21,1.21,0,0,0-.62-.46,1.55,1.55,0,0,0-.93,0,1,1,0,0,0-.66.66,1.25,1.25,0,0,0,.15,1.08,1.2,1.2,0,0,0,.89.62A1,1,0,0,0,209.61,320.8Z" style="fill:#263238"></path><path d="M211.16,323.26a1.26,1.26,0,0,0,1.06,0,1,1,0,0,0,.58-.74,1.52,1.52,0,0,0-.12-.92,1.23,1.23,0,0,0-.58-.57,1.19,1.19,0,0,0-.81,0,1.51,1.51,0,0,0-.74.55,1.06,1.06,0,0,0-.12.93A1.19,1.19,0,0,0,211.16,323.26Z" style="fill:#263238"></path><path d="M216.07,323.45a1.34,1.34,0,0,0,.34-.43,1,1,0,0,0-.06-.94,1.79,1.79,0,0,0-.68-.61,1.18,1.18,0,0,0-.37-.11.74.74,0,0,0-.36,0,1.43,1.43,0,0,0-.93,1.31,1.13,1.13,0,0,0,1.5,1A1.61,1.61,0,0,0,216.07,323.45Z" style="fill:#263238"></path><path d="M219,320.61a1.33,1.33,0,0,0-.09-1.12,1.06,1.06,0,0,0-.82-.48,1.55,1.55,0,0,0-.88.25,1.09,1.09,0,0,0-.5.55,1,1,0,0,0,.06.72,1.6,1.6,0,0,0,.5.75,1,1,0,0,0,.94.18A1.39,1.39,0,0,0,219,320.61Z" style="fill:#263238"></path><path d="M218.81,317.27a1.31,1.31,0,0,0,.08-1,1.16,1.16,0,0,0-1.64-.73,1.33,1.33,0,0,0-.66,1.51,1.15,1.15,0,0,0,.54.61,1.38,1.38,0,0,0,.9.18A1,1,0,0,0,218.81,317.27Z" style="fill:#263238"></path><path d="M198.13,307a1.18,1.18,0,0,0-2.3.49,1.18,1.18,0,1,0,2.3-.49Z" style="fill:#263238"></path><path d="M194.66,307.63a1.18,1.18,0,0,0-2.36.06,1.18,1.18,0,1,0,2.36-.06Z" style="fill:#263238"></path><path d="M191.13,307.62a1.18,1.18,0,0,0-2.32-.38,1.18,1.18,0,1,0,2.32.38Z" style="fill:#263238"></path><path d="M187,305.41a1.21,1.21,0,0,0-1.52.63,1.18,1.18,0,1,0,2.19.88A1.22,1.22,0,0,0,187,305.41Z" style="fill:#263238"></path><path d="M184.46,305.48a1.17,1.17,0,0,0-1.92-1.35,1.18,1.18,0,1,0,1.92,1.35Z" style="fill:#263238"></path><path d="M181.63,303.37a1.27,1.27,0,0,0,.08-1.68,1.25,1.25,0,0,0-1.68,0,1.18,1.18,0,1,0,1.6,1.72Z" style="fill:#263238"></path><path d="M179.34,300.7a1.19,1.19,0,0,0,.33-1.62,1.24,1.24,0,0,0-1.63-.35,1.15,1.15,0,0,0-.4,1.66A1.21,1.21,0,0,0,179.34,300.7Z" style="fill:#263238"></path><path d="M177.5,297.68a1.23,1.23,0,0,0,.66-1.52,1.25,1.25,0,0,0-1.52-.67,1.18,1.18,0,1,0,.86,2.19Z" style="fill:#263238"></path><path d="M177.32,293a1.23,1.23,0,0,0-1.32-1,1.18,1.18,0,1,0,.34,2.33A1.25,1.25,0,0,0,177.32,293Z" style="fill:#263238"></path><path d="M177.24,289.79a1.25,1.25,0,0,0-1.06-1.28,1.18,1.18,0,1,0-.21,2.34A1.25,1.25,0,0,0,177.24,289.79Z" style="fill:#263238"></path><path d="M177.89,286.6a1.24,1.24,0,0,0-.75-1.49,1.17,1.17,0,0,0-1.55.74,1.15,1.15,0,0,0,.83,1.5A1.24,1.24,0,0,0,177.89,286.6Z" style="fill:#263238"></path><path d="M179.22,283.6a1.21,1.21,0,0,0-.43-1.6,1.18,1.18,0,1,0-1.17,2A1.23,1.23,0,0,0,179.22,283.6Z" style="fill:#263238"></path><path d="M181.13,280.91a1.23,1.23,0,0,0-.12-1.66,1.18,1.18,0,1,0-1.54,1.79A1.24,1.24,0,0,0,181.13,280.91Z" style="fill:#263238"></path><path d="M183.51,278.64a1.22,1.22,0,0,0,.2-1.65,1.18,1.18,0,1,0-1.85,1.45A1.23,1.23,0,0,0,183.51,278.64Z" style="fill:#263238"></path><path d="M186.28,276.92a1.26,1.26,0,0,0,.56-1.56,1.18,1.18,0,1,0-2.12,1A1.25,1.25,0,0,0,186.28,276.92Z" style="fill:#263238"></path><path d="M190.28,274.61A1.18,1.18,0,1,0,188,275a1.18,1.18,0,0,0,2.32-.38Z" style="fill:#263238"></path><path d="M192.64,314.2a1.22,1.22,0,0,0,1-1.5,1.33,1.33,0,0,0-2.58.5A1.23,1.23,0,0,0,192.64,314.2Z" style="fill:#263238"></path><path d="M188.41,314.48a1.23,1.23,0,0,0,1.38-1.19,1.32,1.32,0,0,0-1.26-1.23,1.3,1.3,0,0,0-1.37,1.09A1.23,1.23,0,0,0,188.41,314.48Z" style="fill:#263238"></path><path d="M183.31,312.28a1.32,1.32,0,0,0,2.55.66,1.31,1.31,0,0,0-1-1.46A1.28,1.28,0,0,0,183.31,312.28Z" style="fill:#263238"></path><path d="M179.68,310.72a1.25,1.25,0,0,0,.67,1.68,1.24,1.24,0,0,0,1.72-.58,1.3,1.3,0,0,0-.7-1.62A1.28,1.28,0,0,0,179.68,310.72Z" style="fill:#263238"></path><path d="M178.54,310.07a1.27,1.27,0,0,0-.47-1.7,1.26,1.26,0,0,0-1.74.26,1.32,1.32,0,0,0,2.21,1.44Z" style="fill:#263238"></path><path d="M306.92,233.32c3.31-.36,7.33-11.59,7.33-15.64a7.33,7.33,0,1,0-14.66,0C299.59,221.73,304.72,233.56,306.92,233.32Z" style="fill:#fff"></path><path d="M285.13,234.68c3.51,2,16.32,3.5,17.21,1.47,1.34-3-6.37-12.15-9.88-14.17a7.33,7.33,0,1,0-7.33,12.7Z" style="fill:#77FFC0"></path><path d="M302.51,241.53c-2-2.68-13.71-.55-17.22,1.47a7.33,7.33,0,0,0,7.33,12.7C296.13,253.68,303.82,243.32,302.51,241.53Z" style="fill:#fff"></path><path d="M307.24,244.08c-3.3.36-7.33,11.59-7.33,15.64a7.34,7.34,0,1,0,14.67,0C314.58,255.67,309.45,243.84,307.24,244.08Z" style="fill:#77FFC0"></path><path d="M329,242.72c-3.51-2-16.33-3.5-17.22-1.47-1.34,3,6.37,12.15,9.88,14.17a7.33,7.33,0,0,0,7.34-12.7Z" style="fill:#fff"></path><path d="M311.66,235.87c2,2.68,13.71.55,17.21-1.47a7.33,7.33,0,1,0-7.33-12.7C318,223.72,310.35,234.09,311.66,235.87Z" style="fill:#77FFC0"></path><path d="M310.67,238.7a3.59,3.59,0,1,0-3.59,3.59A3.58,3.58,0,0,0,310.67,238.7Z" style="fill:#263238"></path><path d="M310.67,238.7a3.59,3.59,0,1,0-3.59,3.59A3.58,3.58,0,0,0,310.67,238.7Z" style="fill:#fff;stroke:#263238;stroke-miterlimit:10"></path><path d="M207.32,233.32c3.31-.36,7.33-11.59,7.33-15.64a7.33,7.33,0,0,0-14.66,0C200,221.73,205.12,233.56,207.32,233.32Z" style="fill:#fff"></path><path d="M185.53,234.68c3.51,2,16.32,3.5,17.21,1.47,1.34-3-6.37-12.15-9.88-14.17a7.33,7.33,0,1,0-7.33,12.7Z" style="fill:#77FFC0"></path><path d="M202.91,241.53c-2-2.68-13.71-.55-17.22,1.47A7.33,7.33,0,0,0,193,255.7C196.53,253.68,204.22,243.32,202.91,241.53Z" style="fill:#fff"></path><path d="M207.65,244.08c-3.31.36-7.34,11.59-7.34,15.64a7.34,7.34,0,1,0,14.67,0C215,255.67,209.85,243.84,207.65,244.08Z" style="fill:#77FFC0"></path><path d="M229.44,242.72c-3.51-2-16.33-3.5-17.22-1.47-1.34,3,6.38,12.15,9.88,14.17a7.33,7.33,0,0,0,7.34-12.7Z" style="fill:#fff"></path><path d="M212.06,235.87c2,2.68,13.71.55,17.21-1.47a7.33,7.33,0,1,0-7.33-12.7C218.43,223.72,210.75,234.09,212.06,235.87Z" style="fill:#77FFC0"></path><path d="M211.07,238.7a3.59,3.59,0,1,0-3.59,3.59A3.58,3.58,0,0,0,211.07,238.7Z" style="fill:#263238"></path><path d="M211.07,238.7a3.59,3.59,0,1,0-3.59,3.59A3.58,3.58,0,0,0,211.07,238.7Z" style="fill:#fff;stroke:#263238;stroke-miterlimit:10"></path><path d="M348.44,270.85c-2.19-1.12-14.59-2.22-14.59-2.22S342,278,344.19,279.16a4.67,4.67,0,0,0,4.25-8.31Z" style="fill:#263238"></path><path d="M353.93,257c-2.43-.42-14.59,2.22-14.59,2.22s10.57,6.56,13,7a4.67,4.67,0,0,0,1.59-9.2Z" style="fill:#263238"></path><path d="M289.45,402.1c-1.18-1.77-10-7.85-10-7.85s2.14,10.52,3.31,12.29a4,4,0,0,0,6.72-4.44Z" style="fill:#263238"></path><path d="M299.45,394c-1.64-1.35-11.9-4.52-11.9-4.52s5.16,9.41,6.81,10.76a4,4,0,0,0,5.09-6.24Z" style="fill:#263238"></path><path d="M220.21,402.1c1.18-1.77,10-7.85,10-7.85s-2.14,10.52-3.31,12.29a4,4,0,0,1-6.72-4.44Z" style="fill:#263238"></path><path d="M210.21,394c1.65-1.35,11.9-4.52,11.9-4.52s-5.16,9.41-6.81,10.76a4,4,0,0,1-5.09-6.24Z" style="fill:#263238"></path><path d="M163.52,270.85c2.19-1.12,14.59-2.22,14.59-2.22S170,278,167.77,279.16a4.67,4.67,0,0,1-4.25-8.31Z" style="fill:#263238"></path><path d="M158,257c2.43-.42,14.59,2.22,14.59,2.22s-10.57,6.56-13,7A4.67,4.67,0,0,1,158,257Z" style="fill:#263238"></path><path d="M271.21,200.54a9.7,9.7,0,0,1,3.55,2.56,10,10,0,0,1,2.1,3.75,7.65,7.65,0,0,1,0,4.42c-.14.36-.26.71-.42,1l-.57.94a9.92,9.92,0,0,1-1.41,1.53,11.82,11.82,0,0,1-3.27,1.93,22.59,22.59,0,0,1-3.36,1,52.57,52.57,0,0,0-6.29,1.56,9.72,9.72,0,0,0-2.7,1.48,8.07,8.07,0,0,0-2,2.4l-.49-.21a8.94,8.94,0,0,1,1.72-3,10.85,10.85,0,0,1,2.76-2.16,47,47,0,0,1,6.22-2.59,12.51,12.51,0,0,0,5-3,3.52,3.52,0,0,0,.81-4,4.86,4.86,0,0,0-3.37-2.71,4.1,4.1,0,0,0-1-.1,3.52,3.52,0,0,0-1,.06,4.52,4.52,0,0,0-1.68.62,1.39,1.39,0,0,0-.31.23c-.1.11-.2.21-.31.31a3.15,3.15,0,0,1-.24.3,1.94,1.94,0,0,1-.17.31,2.21,2.21,0,0,0,0,1.66,4.55,4.55,0,0,0,4.26,2.74l.17.5a4.94,4.94,0,0,1-3.7.91,6.29,6.29,0,0,1-3.76-2l-.38-.43-.33-.49a5.54,5.54,0,0,1-.54-1.09,6.17,6.17,0,0,1-.32-1.23,9.3,9.3,0,0,1-.05-1.3,9.74,9.74,0,0,1,.24-1.29c.14-.4.3-.79.47-1.19s.43-.69.65-1a6.81,6.81,0,0,1,.83-.95A8.31,8.31,0,0,1,271.21,200.54Z" style="fill:#263238"></path><path d="M239.84,200.54a9.7,9.7,0,0,0-3.55,2.56,9.86,9.86,0,0,0-2.1,3.75,7.65,7.65,0,0,0,0,4.42c.13.36.26.71.42,1s.37.63.57.94a9.92,9.92,0,0,0,1.41,1.53,11.82,11.82,0,0,0,3.27,1.93,22.59,22.59,0,0,0,3.36,1,53,53,0,0,1,6.29,1.56,9.81,9.81,0,0,1,2.69,1.48,8,8,0,0,1,2,2.4l.49-.21a8.94,8.94,0,0,0-1.72-3,10.73,10.73,0,0,0-2.77-2.16,46.32,46.32,0,0,0-6.21-2.59,12.51,12.51,0,0,1-5-3,3.52,3.52,0,0,1-.81-4,4.84,4.84,0,0,1,3.36-2.71,4.24,4.24,0,0,1,1-.1,3.55,3.55,0,0,1,1,.06,4.52,4.52,0,0,1,1.68.62,1.39,1.39,0,0,1,.31.23c.1.11.2.21.31.31a3.15,3.15,0,0,0,.24.3,1.84,1.84,0,0,0,.16.31,2.16,2.16,0,0,1,0,1.66,4.55,4.55,0,0,1-4.26,2.74l-.17.5a4.93,4.93,0,0,0,3.7.91,6.26,6.26,0,0,0,3.75-2l.39-.43.33-.49a5,5,0,0,0,.53-1.09,5.06,5.06,0,0,0,.32-1.23,7,7,0,0,0,.05-1.3,8.32,8.32,0,0,0-.23-1.29c-.14-.4-.3-.79-.47-1.19s-.43-.69-.66-1a6.14,6.14,0,0,0-.82-.95A8.31,8.31,0,0,0,239.84,200.54Z" style="fill:#263238"></path></g><g id="freepik--Hat--inject-36"><path d="M342.43,123.61C320.74,73.74,283.72,28,273.34,21.12a38.06,38.06,0,0,0-44.33,0c-10.38,6.86-47.4,52.62-69.09,102.49Z" style="fill:#77FFC0;stroke:#263238;stroke-miterlimit:10"></path><path d="M328.13,94.86c-72.86-9-124.71-5.25-153.25-1.17a332.5,332.5,0,0,0-15,29.92H342.43C338.15,113.78,333.27,104.11,328.13,94.86Z" style="fill:#263238"></path><path d="M252.35,58.36c2.78-.3,6.17-9.75,6.17-13.16a6.17,6.17,0,0,0-12.34,0C246.18,48.61,250.5,58.56,252.35,58.36Z" style="fill:#263238"></path><path d="M234,59.5c2.94,1.71,13.72,2.94,14.47,1.24,1.13-2.56-5.36-10.22-8.31-11.92A6.16,6.16,0,1,0,234,59.5Z" style="fill:#263238"></path><path d="M248.64,65.26C247,63,237.11,64.8,234.16,66.5a6.17,6.17,0,0,0,6.17,10.68C243.28,75.48,249.74,66.76,248.64,65.26Z" style="fill:#263238"></path><path d="M252.62,67.4c-2.78.31-6.16,9.76-6.16,13.16a6.17,6.17,0,1,0,12.33,0C258.79,77.16,254.48,67.2,252.62,67.4Z" style="fill:#263238"></path><path d="M271,66.26c-2.95-1.7-13.73-2.94-14.48-1.24-1.12,2.57,5.36,10.22,8.31,11.92A6.17,6.17,0,1,0,271,66.26Z" style="fill:#263238"></path><path d="M256.34,60.5c1.65,2.26,11.52.47,14.47-1.23a6.17,6.17,0,0,0-6.16-10.69C261.7,50.29,255.23,59,256.34,60.5Z" style="fill:#263238"></path><path d="M255.5,62.88a3,3,0,1,0-3,3A3,3,0,0,0,255.5,62.88Z" style="fill:#263238"></path><circle cx="252.49" cy="62.88" r="3.01" style="fill:#263238"></circle><line x1="81.07" y1="163.67" x2="81.07" y2="189.4" style="fill:none;stroke:#263238;stroke-miterlimit:10;stroke-width:2px"></line><circle cx="81.07" cy="189.4" r="9.48" transform="translate(-41.35 23.69) rotate(-13.28)" style="fill:#263238"></circle><line x1="115.28" y1="163.67" x2="115.28" y2="189.4" style="fill:none;stroke:#263238;stroke-miterlimit:10;stroke-width:2px"></line><circle cx="115.28" cy="189.4" r="9.48" transform="translate(-39.06 30.21) rotate(-12.79)" style="fill:#263238"></circle><line x1="149.48" y1="163.67" x2="149.48" y2="189.4" style="fill:none;stroke:#263238;stroke-miterlimit:10;stroke-width:2px"></line><circle cx="149.48" cy="189.4" r="9.48" transform="translate(-82.87 254.47) rotate(-67.36)" style="fill:#263238"></circle><line x1="183.69" y1="163.67" x2="183.69" y2="189.4" style="fill:none;stroke:#263238;stroke-miterlimit:10;stroke-width:2px"></line><circle cx="183.69" cy="189.4" r="9.48" transform="translate(-80.13 185.36) rotate(-45)" style="fill:#263238"></circle><path d="M365.79,177.15A66.32,66.32,0,0,0,358,158.06h0c-10-16.45-26.26-26.24-43.63-26.24H195.85c-17.36,0-33.64,9.79-43.62,26.24h0a66.48,66.48,0,0,0-8,20.18C205.57,175,286.63,172.91,365.79,177.15Z" style="fill:#263238"></path><line x1="217.9" y1="163.67" x2="217.9" y2="189.4" style="fill:none;stroke:#263238;stroke-miterlimit:10;stroke-width:2px"></line><circle cx="217.9" cy="189.4" r="9.48" transform="translate(-70.11 209.55) rotate(-45)" style="fill:#263238"></circle><line x1="252.1" y1="163.67" x2="252.1" y2="189.4" style="fill:none;stroke:#263238;stroke-miterlimit:10;stroke-width:2px"></line><circle cx="252.1" cy="189.4" r="9.48" transform="translate(-60.09 233.74) rotate(-45)" style="fill:#263238"></circle><line x1="286.31" y1="163.67" x2="286.31" y2="189.4" style="fill:none;stroke:#263238;stroke-miterlimit:10;stroke-width:2px"></line><circle cx="286.31" cy="189.4" r="9.48" transform="translate(-50.07 257.92) rotate(-45)" style="fill:#263238"></circle><line x1="320.51" y1="163.67" x2="320.51" y2="189.4" style="fill:none;stroke:#263238;stroke-miterlimit:10;stroke-width:2px"></line><circle cx="320.51" cy="189.4" r="9.48" transform="translate(-36.4 295.32) rotate(-47.11)" style="fill:#263238"></circle><line x1="354.72" y1="163.67" x2="354.72" y2="189.4" style="fill:none;stroke:#263238;stroke-miterlimit:10;stroke-width:2px"></line><circle cx="354.72" cy="189.4" r="9.48" transform="translate(-42.1 254.47) rotate(-37.41)" style="fill:#263238"></circle><line x1="388.92" y1="163.67" x2="388.92" y2="189.4" style="fill:none;stroke:#263238;stroke-miterlimit:10;stroke-width:2px"></line><circle cx="388.92" cy="189.4" r="9.48" transform="translate(-33.02 94.02) rotate(-13.23)" style="fill:#263238"></circle><line x1="423.13" y1="163.67" x2="423.13" y2="189.4" style="fill:none;stroke:#263238;stroke-miterlimit:10;stroke-width:2px"></line><circle cx="423.13" cy="189.4" r="9.48" transform="translate(-32.11 101.85) rotate(-13.23)" style="fill:#263238"></circle><path d="M78.14,174.38c67.66-5.24,215.45-13.78,343.68-1.17A57.45,57.45,0,0,0,478,143.42l7.77-14.32s-126.64-22.2-234.37-23.85S13.69,126.63,13.69,126.63L23,144.09A57.46,57.46,0,0,0,78.14,174.38Z" style="fill:#77FFC0;stroke:#263238;stroke-miterlimit:10"></path><path d="M337.4,125.29c1.52.94,7.06,1.89,7.43,1,.56-1.25-2.83-5.3-4.35-6.25a3.07,3.07,0,0,0-4.3.9A3.2,3.2,0,0,0,337.4,125.29Z" style="fill:#263238"></path><path d="M347.15,139.56a2.85,2.85,0,0,0,3.12-2.9c0-1.72-2.32-6.87-3.27-6.83-1.43.07-3.09,4.72-3.07,6.43A3.45,3.45,0,0,0,347.15,139.56Z" style="fill:#263238"></path><path d="M340.76,134.37c1.5-.77,4.75-5,4.18-5.74-.87-1.19-5.92-.59-7.42.19a2.94,2.94,0,0,0-1.1,4.17A3.35,3.35,0,0,0,340.76,134.37Z" style="fill:#263238"></path><path d="M356.26,126.33a2.93,2.93,0,0,0,1.08-4.17,3.37,3.37,0,0,0-4.34-1.42c-1.49.76-4.73,4.94-4.15,5.73C349.71,127.66,354.76,127.09,356.26,126.33Z" style="fill:#263238"></path><path d="M346.63,115.53a2.87,2.87,0,0,0-3.11,2.92c0,1.71,2.32,6.86,3.26,6.82,1.43-.07,3.09-4.72,3.06-6.44A3.46,3.46,0,0,0,346.63,115.53Z" style="fill:#263238"></path><path d="M346.6,129l.32,0h.31a1.52,1.52,0,0,0,.55-.2,1.46,1.46,0,0,0,.55-.63,1.63,1.63,0,0,0,.11-.59,1.69,1.69,0,0,0-.13-.59v0a1.83,1.83,0,0,0-.33-.49h0a1.61,1.61,0,0,0-.48-.34l-.12,0a1.6,1.6,0,0,0-.48-.11,1.41,1.41,0,0,0-1.53,1.42h0A1.71,1.71,0,0,0,346.6,129Z" style="fill:#263238"></path><path d="M244.09,131.76c1.52-.85,4.85-5.19,4.28-5.94-.84-1.12-5.92-.2-7.44.66a3,3,0,0,0-1.17,4.19A3.21,3.21,0,0,0,244.09,131.76Z" style="fill:#263238"></path><path d="M250.4,136.5a3.12,3.12,0,0,0,3.18-3.07c0-1.69-2.21-6.65-3.16-6.54-1.43.15-3.18,4.85-3.18,6.54A3.1,3.1,0,0,0,250.4,136.5Z" style="fill:#263238"></path><path d="M218.28,130.65a6.39,6.39,0,0,0,3.63-2.86,5.56,5.56,0,0,0,.47-4.49l-.2-.58c-.11-.19-.21-.38-.31-.57a5.47,5.47,0,0,0-.83-1.08,5.84,5.84,0,0,0-1.12-1,10,10,0,0,0-1.41-.76,15.31,15.31,0,0,0-1.58-.49c-.54-.09-1.09-.16-1.65-.22s-1.06,0-1.6,0a11.11,11.11,0,0,0-1.62.24c-4.29,1-7.15,4-7.9,7.22a8.27,8.27,0,0,0,.31,4.61,9.53,9.53,0,0,0,2.65,3.92,10.27,10.27,0,0,0,4.9,2.39c.48.07,1,.15,1.45.18h1.44a16.6,16.6,0,0,0,2.69-.44,18.39,18.39,0,0,0,4.45-1.92,30.18,30.18,0,0,0,3.51-2.47,65.27,65.27,0,0,1,6.16-4.82,13.48,13.48,0,0,1,3.53-1.61,12.64,12.64,0,0,1,4.06-.47c0-.18.07-.37.1-.55a13.87,13.87,0,0,0-4.51-.13,16.15,16.15,0,0,0-4.34,1.29,65.93,65.93,0,0,0-7.24,4.19,18.89,18.89,0,0,1-6.84,2.9,5.1,5.1,0,0,1-5-1.46,4.25,4.25,0,0,1-.61-4.53,4.13,4.13,0,0,1,.57-1,4.6,4.6,0,0,1,.76-.85,6.17,6.17,0,0,1,1.86-1.19,3.86,3.86,0,0,1,.48-.16,3.69,3.69,0,0,0,.56-.11,2.81,2.81,0,0,0,.49,0,3.45,3.45,0,0,0,.46,0,2.94,2.94,0,0,1,1.82.93,4.06,4.06,0,0,1,0,5.36Z" style="fill:#263238"></path><path d="M353.32,135a3.05,3.05,0,0,0,4.3-.84,3.24,3.24,0,0,0-1.23-4.33c-1.53-1-7.07-2-7.44-1.11C348.4,130,351.79,134.08,353.32,135Z" style="fill:#263238"></path><path d="M284.41,133.18a18.46,18.46,0,0,1-6.83-2.91,63.35,63.35,0,0,0-7.23-4.2,16.83,16.83,0,0,0-4.33-1.29,14.22,14.22,0,0,0-4.52.15c0,.18.07.37.11.55a13,13,0,0,1,4.06.46,13.57,13.57,0,0,1,3.52,1.61,62.21,62.21,0,0,1,6.14,4.84,32.32,32.32,0,0,0,3.5,2.49,18,18,0,0,0,4.45,1.92,16.45,16.45,0,0,0,2.68.45h1.45c.48,0,1-.12,1.45-.19a10.06,10.06,0,0,0,4.91-2.41,9.65,9.65,0,0,0,2.66-4,8.35,8.35,0,0,0,.33-4.66,10.14,10.14,0,0,0-7.88-7.27,11.09,11.09,0,0,0-1.62-.23c-.54,0-1.07,0-1.61,0s-1.1.13-1.64.22a16.34,16.34,0,0,0-1.59.5,11,11,0,0,0-1.4.77,6.33,6.33,0,0,0-1.13,1,5.58,5.58,0,0,0-.83,1.1l-.31.57-.21.59a5.67,5.67,0,0,0,.46,4.52,6.31,6.31,0,0,0,3.62,2.87l.43-.44a4.11,4.11,0,0,1,0-5.4,2.93,2.93,0,0,1,1.82-1,3.45,3.45,0,0,0,.46,0,2.91,2.91,0,0,0,.49,0,4,4,0,0,0,.56.11,3.86,3.86,0,0,1,.48.16,6,6,0,0,1,1.86,1.2,4.63,4.63,0,0,1,.75.86,4.13,4.13,0,0,1,.57.95,4.3,4.3,0,0,1-.63,4.57A5,5,0,0,1,284.41,133.18Z" style="fill:#263238"></path><path d="M442.69,124.38a2.63,2.63,0,0,0-3,2.77c.05,1.73,2.41,7.08,3.36,7.1,1.41,0,3-4.58,2.93-6.32A3.83,3.83,0,0,0,442.69,124.38Z" style="fill:#263238"></path><path d="M315,131.6a5.62,5.62,0,0,0,3.57-2.67,5.54,5.54,0,0,0,.4-4.5c-.07-.21-.15-.41-.22-.61s-.21-.4-.32-.59a6,6,0,0,0-.84-1.16,7.25,7.25,0,0,0-1.15-1,11.5,11.5,0,0,0-1.41-.86,16,16,0,0,0-1.6-.59c-.54-.13-1.09-.23-1.64-.33s-1.07,0-1.6-.06a10.84,10.84,0,0,0-1.62.14c-4.28.75-7.08,3.58-7.78,6.81a8.7,8.7,0,0,0,.39,4.69,10.91,10.91,0,0,0,2.73,4.14,11.15,11.15,0,0,0,4.94,2.73c.49.1,1,.21,1.45.28l1.45.09a17,17,0,0,0,2.68-.28,16.3,16.3,0,0,0,4.42-1.66,27.27,27.27,0,0,0,3.46-2.28,57.45,57.45,0,0,1,6.07-4.49,11.83,11.83,0,0,1,7.54-1.62l.1-.56a14.24,14.24,0,0,0-4.52-.42,16,16,0,0,0-4.31,1,60.75,60.75,0,0,0-7.16,3.79,17,17,0,0,1-6.79,2.5,5.38,5.38,0,0,1-5.06-1.8,4.48,4.48,0,0,1-.7-4.62,3.83,3.83,0,0,1,.56-.92,4.07,4.07,0,0,1,.74-.82,5.63,5.63,0,0,1,1.84-1.08,2.64,2.64,0,0,1,.48-.14,3.47,3.47,0,0,0,.55-.08,2.83,2.83,0,0,0,.5,0,3.24,3.24,0,0,0,.46.05,3.19,3.19,0,0,1,1.84,1.06,4.18,4.18,0,0,1,.11,5.43Z" style="fill:#263238"></path><path d="M248.81,124.67a1.48,1.48,0,0,0,.94,1.35,1.69,1.69,0,0,0,.6.12,1.53,1.53,0,0,0,1.55-1.5h0a1.52,1.52,0,0,0-1.54-1.5,1.56,1.56,0,0,0-1.29.66,1.53,1.53,0,0,0-.27.84h0S248.81,124.66,248.81,124.67Z" style="fill:#263238"></path><path d="M444.2,135.62a1.74,1.74,0,0,0-1.1-.59,1.28,1.28,0,0,0-.59.05,1.17,1.17,0,0,0-.32.15,1.25,1.25,0,0,0-.58,1.15,1.76,1.76,0,0,0,.49,1.14v0a1.9,1.9,0,0,0,1,.56h.36a1.59,1.59,0,0,0,.39-.1,1,1,0,0,0,.21-.11,1.06,1.06,0,0,0,.23-.19,1.3,1.3,0,0,0,.33-.65,1.56,1.56,0,0,0,0-.31h0A1.76,1.76,0,0,0,444.2,135.62Z" style="fill:#263238"></path><path d="M433.67,133.69c1.53,1,7.06,2.35,7.41,1.53.53-1.24-2.9-5.55-4.43-6.6a2.93,2.93,0,0,0-4.27.64A3.44,3.44,0,0,0,433.67,133.69Z" style="fill:#263238"></path><path d="M411.43,138.67a5,5,0,0,0,3.51-2.47,5.63,5.63,0,0,0,.32-4.55c-.07-.2-.15-.41-.22-.62s-.22-.42-.34-.62a6.39,6.39,0,0,0-.85-1.22,7.32,7.32,0,0,0-1.16-1.13,12.29,12.29,0,0,0-1.43-1,16.27,16.27,0,0,0-1.59-.7c-.54-.16-1.09-.3-1.65-.43s-1.06-.13-1.6-.17a9.63,9.63,0,0,0-1.61,0c-4.24.49-7,3.18-7.63,6.41a9.07,9.07,0,0,0,.47,4.77,12.2,12.2,0,0,0,2.79,4.37,12.38,12.38,0,0,0,5,3.07c.48.13,1,.28,1.45.37l1.44.18a14.42,14.42,0,0,0,2.67-.11,14.85,14.85,0,0,0,4.37-1.4,24.35,24.35,0,0,0,3.41-2.09,51.43,51.43,0,0,1,6-4.17,11.55,11.55,0,0,1,3.46-1.21,12.09,12.09,0,0,1,4,0l.09-.56a14.34,14.34,0,0,0-4.5-.7,14.56,14.56,0,0,0-4.28.77,53.21,53.21,0,0,0-7.06,3.39,15.87,15.87,0,0,1-6.72,2.11,5.74,5.74,0,0,1-5.07-2.15,4.72,4.72,0,0,1-.77-4.72,3.62,3.62,0,0,1,.53-.9,3.83,3.83,0,0,1,.73-.78,5,5,0,0,1,1.81-1,2.56,2.56,0,0,1,.48-.1,5.09,5.09,0,0,0,.55,0h.49a2.21,2.21,0,0,0,.46.08,3.48,3.48,0,0,1,1.85,1.19,4.31,4.31,0,0,1,.21,5.5Z" style="fill:#263238"></path><path d="M437.17,143.09c1.48-.68,4.64-4.72,4.05-5.55-.88-1.26-5.89-1-7.37-.27a2.86,2.86,0,0,0-1,4.15A3.51,3.51,0,0,0,437.17,143.09Z" style="fill:#263238"></path><path d="M452.44,135.92a2.85,2.85,0,0,0,1-4.15,3.53,3.53,0,0,0-4.33-1.72c-1.48.68-4.63,4.71-4,5.55C446,136.86,451,136.59,452.44,135.92Z" style="fill:#263238"></path><path d="M381,138.36a20.27,20.27,0,0,1-6.86-3.38,71,71,0,0,0-7.29-4.72,17.65,17.65,0,0,0-4.35-1.57,13.68,13.68,0,0,0-4.5-.14c0,.19.07.38.11.57a12.79,12.79,0,0,1,4.06.72,15.16,15.16,0,0,1,3.55,1.85A70.66,70.66,0,0,1,372,137a35.34,35.34,0,0,0,3.53,2.74A19.86,19.86,0,0,0,380,142a16.43,16.43,0,0,0,2.68.62c.48,0,1,.07,1.45.09s1,0,1.44-.09a9.32,9.32,0,0,0,4.85-2.14,8.87,8.87,0,0,0,2.59-3.85,8.59,8.59,0,0,0,.24-4.71,11.3,11.3,0,0,0-8-7.85,10.15,10.15,0,0,0-1.62-.34c-.54-.06-1.07-.11-1.6-.13s-1.1.06-1.63.12a13,13,0,0,0-1.58.41,9.47,9.47,0,0,0-1.39.69,6.27,6.27,0,0,0-1.11.91,4.92,4.92,0,0,0-.8,1.06c-.1.19-.2.38-.31.56s-.13.39-.19.59a5.88,5.88,0,0,0,.54,4.6,7,7,0,0,0,3.66,3.14l.42-.42c-1.58-2.17-1.15-4.33-.06-5.47a2.64,2.64,0,0,1,1.8-.84,3.61,3.61,0,0,0,.46,0,3.11,3.11,0,0,0,.49.08l.56.15a4.94,4.94,0,0,1,.49.19,7.09,7.09,0,0,1,1.87,1.33,5.38,5.38,0,0,1,.76.92,5,5,0,0,1,.59,1,4.31,4.31,0,0,1-.55,4.59C385,138.4,383.29,138.91,381,138.36Z" style="fill:#263238"></path><path d="M479.58,134.94c-.53-.09-1.06-.17-1.59-.23s-1.09,0-1.62,0a12.66,12.66,0,0,0-1.56.32,8.5,8.5,0,0,0-1.37.61,4.87,4.87,0,0,0-1.08.86,4,4,0,0,0-.79,1l-.29.55c-.06.19-.12.38-.19.58a6.3,6.3,0,0,0,.61,4.69,7.92,7.92,0,0,0,3.69,3.41l.41-.4c-1.6-2.3-1.21-4.45-.14-5.54a2.36,2.36,0,0,1,1.77-.74,3.93,3.93,0,0,0,.45,0,3.49,3.49,0,0,0,.5.11,4.5,4.5,0,0,0,.55.19,3.64,3.64,0,0,1,.49.22l0,0,2.65-4.89a8.87,8.87,0,0,0-.89-.39A11.83,11.83,0,0,0,479.58,134.94Z" style="fill:#263238"></path><path d="M443.61,148.75a2.6,2.6,0,0,0,3.05-2.74c-.05-1.74-2.42-7.11-3.37-7.12-1.41,0-3,4.58-2.94,6.32A3.84,3.84,0,0,0,443.61,148.75Z" style="fill:#263238"></path><path d="M449.66,144.56a2.92,2.92,0,0,0,4.27-.59,3.49,3.49,0,0,0-1.3-4.46c-1.53-1.07-7.05-2.41-7.41-1.59C444.69,139.15,448.13,143.49,449.66,144.56Z" style="fill:#263238"></path><path d="M458.41,139.84a16.75,16.75,0,0,1,3.56,2.1,80.32,80.32,0,0,1,6.25,5.74,39,39,0,0,0,3.56,3c.31.23.63.45,1,.67.69-.88,1.36-1.79,2-2.72a29.79,29.79,0,0,1-4.37-2.84,78.72,78.72,0,0,0-7.31-5.22,18.44,18.44,0,0,0-4.35-1.87,13.6,13.6,0,0,0-4.48-.42l.12.58A13.27,13.27,0,0,1,458.41,139.84Z" style="fill:#263238"></path><path d="M239.73,118.83a3,3,0,0,0,1.15,4.17c1.51.83,7,1.42,7.43.58.58-1.28-2.74-5.07-4.25-5.91A3.24,3.24,0,0,0,239.73,118.83Z" style="fill:#263238"></path><path d="M58,135.66a1.63,1.63,0,0,0-.31,0,1.86,1.86,0,0,0-1.6,1.67,2.83,2.83,0,0,0,0,.29,1.23,1.23,0,0,0,.17.41.75.75,0,0,0,.21.26h0a1.07,1.07,0,0,0,.22.15,1.4,1.4,0,0,0,.85.14,1.93,1.93,0,0,0,1.31-.81,1.64,1.64,0,0,0,.29-.85A1.2,1.2,0,0,0,58,135.66Z" style="fill:#263238"></path><path d="M63.61,143.19A3.64,3.64,0,0,0,68,141.56a2.65,2.65,0,0,0-1-4c-1.48-.65-7-.56-7.38.32C59,139.24,62.13,142.54,63.61,143.19Z" style="fill:#263238"></path><path d="M57.2,148.73a3.77,3.77,0,0,0,3.27-3.4c.07-1.66-1.94-6.22-2.89-6-1.42.33-3.34,5.15-3.41,6.8A2.52,2.52,0,0,0,57.2,148.73Z" style="fill:#263238"></path><path d="M51.62,131.12a3.66,3.66,0,0,0-4.34,1.68,2.63,2.63,0,0,0,1,3.94c1.47.62,6.94.49,7.36-.38C56.24,135,53.08,131.75,51.62,131.12Z" style="fill:#263238"></path><path d="M51.1,144.9c1.55-1,5-5.69,4.49-6.35-.8-1-5.87.54-7.41,1.58a3.26,3.26,0,0,0-1.33,4.25A3,3,0,0,0,51.1,144.9Z" style="fill:#263238"></path><path d="M58,125.55A3.79,3.79,0,0,0,54.74,129c-.07,1.65,1.93,6.21,2.88,6,1.43-.34,3.34-5.15,3.41-6.81A2.52,2.52,0,0,0,58,125.55Z" style="fill:#263238"></path><path d="M461.71,162.14a58.74,58.74,0,0,0,4.66-3.85,1532,1532,0,0,0-432.95-.23q2,2,4.13,3.7A1533.72,1533.72,0,0,1,461.71,162.14Z" style="fill:#263238"></path><path d="M42.55,140.36a14,14,0,0,1,4.05-1l.13-.55a14.49,14.49,0,0,0-4.48.44,19.39,19.39,0,0,0-4.36,1.81,82.47,82.47,0,0,0-7.34,5A30.16,30.16,0,0,1,25.9,149c.6.9,1.22,1.78,1.87,2.65q.7-.42,1.35-.87a39.51,39.51,0,0,0,3.57-2.86A80.15,80.15,0,0,1,39,142.39,17,17,0,0,1,42.55,140.36Z" style="fill:#263238"></path><path d="M68.34,130a3,3,0,0,0-4.25-.57c-1.54,1-5,5.68-4.48,6.34.8,1,5.88-.52,7.42-1.53A3.24,3.24,0,0,0,68.34,130Z" style="fill:#263238"></path><path d="M72.78,136.48a11.47,11.47,0,0,1,3.45,1.13,48.86,48.86,0,0,1,5.93,3.95,24.81,24.81,0,0,0,3.39,2,14.12,14.12,0,0,0,7,1.42q.72-.08,1.44-.18c.49-.09,1-.23,1.46-.36a12.47,12.47,0,0,0,5-3,11.87,11.87,0,0,0,2.81-4.22,8.46,8.46,0,0,0,.5-4.6c-.62-3.1-3.35-5.68-7.59-6.11a9.58,9.58,0,0,0-1.61,0c-.53.05-1.06.1-1.59.18s-1.11.27-1.65.42-1.09.43-1.6.69a14.65,14.65,0,0,0-1.43.93,8.15,8.15,0,0,0-1.16,1.1,6.56,6.56,0,0,0-.87,1.17l-.33.6-.23.61a5.17,5.17,0,0,0,.29,4.35,5,5,0,0,0,3.5,2.35l.44-.48a4,4,0,0,1,.24-5.29A3.57,3.57,0,0,1,92,132a3.17,3.17,0,0,0,.46-.07,3.85,3.85,0,0,0,.49,0,5.35,5.35,0,0,0,.55.05A2.4,2.4,0,0,1,94,132a5,5,0,0,1,1.81.93,3.9,3.9,0,0,1,.72.75,3.37,3.37,0,0,1,.53.86,4.44,4.44,0,0,1-.8,4.55,5.88,5.88,0,0,1-5.08,2.08,16.09,16.09,0,0,1-6.7-2,52.16,52.16,0,0,0-7-3.2,13.86,13.86,0,0,0-8.76,0l.08.53A12.38,12.38,0,0,1,72.78,136.48Z" style="fill:#263238"></path><path d="M259.77,122.85a3,3,0,0,0,1.15-4.19,3.23,3.23,0,0,0-4.32-1.14c-1.51.85-4.83,5.18-4.27,5.93C253.18,124.57,258.25,123.69,259.77,122.85Z" style="fill:#263238"></path><path d="M21.54,141.37l0,0a3.64,3.64,0,0,1,.49-.22l.55-.18a2.58,2.58,0,0,0,.5-.12,2.5,2.5,0,0,0,.45,0,2.44,2.44,0,0,1,1.77.68c1.05,1,1.42,3.05-.2,5.24l.41.37a8,8,0,0,0,3.71-3.26,5.7,5.7,0,0,0,.65-4.44l-.18-.55-.29-.51a3.87,3.87,0,0,0-.77-1,5.22,5.22,0,0,0-1.08-.8,9.9,9.9,0,0,0-1.36-.56,14.69,14.69,0,0,0-1.55-.28H23.05c-.53.06-1.06.15-1.59.24a11.78,11.78,0,0,0-1.62.44c-.27.1-.51.22-.77.33Z" style="fill:#263238"></path><path d="M187.7,134.13a17.36,17.36,0,0,1-6.78-2.45,58.11,58.11,0,0,0-7.14-3.7,15.58,15.58,0,0,0-4.31-1,14.57,14.57,0,0,0-4.52.43c0,.18.07.36.1.54a12,12,0,0,1,7.54,1.56,56.08,56.08,0,0,1,6,4.4,27.09,27.09,0,0,0,3.46,2.23,16.47,16.47,0,0,0,4.4,1.63,16.12,16.12,0,0,0,2.69.27l1.44-.09c.49-.06,1-.17,1.46-.27A11.4,11.4,0,0,0,197,135a10.69,10.69,0,0,0,2.74-4.09,8.49,8.49,0,0,0,.41-4.63c-.69-3.19-3.48-6-7.75-6.69a12.49,12.49,0,0,0-1.62-.13c-.54,0-1.07,0-1.6.08s-1.11.2-1.65.32a17,17,0,0,0-1.6.6,11,11,0,0,0-1.41.85,7.2,7.2,0,0,0-1.15,1,5.92,5.92,0,0,0-.85,1.14l-.32.58-.22.6a5.38,5.38,0,0,0,.38,4.43,5.56,5.56,0,0,0,3.56,2.61l.44-.46a4.06,4.06,0,0,1,.14-5.34,3.19,3.19,0,0,1,1.84-1,2.06,2.06,0,0,0,.45,0,2.86,2.86,0,0,0,.5,0,3.65,3.65,0,0,0,.55.08,2.52,2.52,0,0,1,.49.13,5.52,5.52,0,0,1,1.83,1.06,4.26,4.26,0,0,1,.74.8,3.62,3.62,0,0,1,.55.91,4.38,4.38,0,0,1-.71,4.56A5.46,5.46,0,0,1,187.7,134.13Z" style="fill:#263238"></path><path d="M121.71,135.8a7,7,0,0,0,3.67-3.05,5.59,5.59,0,0,0,.57-4.46l-.2-.57-.3-.54a4.72,4.72,0,0,0-.8-1,5.74,5.74,0,0,0-1.1-.88,9.36,9.36,0,0,0-1.39-.65,12.42,12.42,0,0,0-1.57-.39c-.53,0-1.08-.08-1.63-.11s-1.06.08-1.6.14a11.87,11.87,0,0,0-9.63,8,7.87,7.87,0,0,0,.21,4.53,8.55,8.55,0,0,0,2.57,3.71,9.29,9.29,0,0,0,4.84,2c.48,0,1,.08,1.44.09l1.44-.1a16.56,16.56,0,0,0,2.69-.61,19.61,19.61,0,0,0,4.48-2.17,32.67,32.67,0,0,0,3.54-2.66,74,74,0,0,1,6.23-5.16,15.63,15.63,0,0,1,3.55-1.81,13.13,13.13,0,0,1,4.07-.72l.11-.56a14.28,14.28,0,0,0-4.5.16,18,18,0,0,0-4.35,1.55,71.6,71.6,0,0,0-7.31,4.61,20.48,20.48,0,0,1-6.87,3.29c-2.27.54-3.93.06-5-1.12a4.07,4.07,0,0,1-.53-4.44,5,5,0,0,1,.59-1,5.28,5.28,0,0,1,.77-.89,6.79,6.79,0,0,1,1.88-1.29,2.62,2.62,0,0,1,.49-.19l.55-.15a3.23,3.23,0,0,0,.5-.08,3.54,3.54,0,0,0,.45,0,2.68,2.68,0,0,1,1.8.81c1.08,1.1,1.5,3.18-.09,5.29Z" style="fill:#263238"></path><path d="M164.49,121.26a3.09,3.09,0,0,0-4.29-.85c-1.53.93-4.93,5.42-4.38,6.13.83,1,5.91-.14,7.44-1.07A3.1,3.1,0,0,0,164.49,121.26Z" style="fill:#263238"></path><path d="M247.13,115.86c0,1.69,2.21,6.63,3.16,6.53,1.43-.16,3.17-4.86,3.17-6.55a3.1,3.1,0,0,0-3.16-3.06A3.14,3.14,0,0,0,247.13,115.86Z" style="fill:#263238"></path><path d="M256.67,131.64a3.23,3.23,0,0,0,4.33-1.1,3,3,0,0,0-1.16-4.2c-1.52-.86-7.06-1.49-7.44-.64C251.82,127,255.15,130.78,256.67,131.64Z" style="fill:#263238"></path><path d="M152.31,128.23a.77.77,0,0,0,.08.27,1.39,1.39,0,0,0,1.1.81h.31a1.77,1.77,0,0,0,.9-.34,1.68,1.68,0,0,0,.64-.95,1.39,1.39,0,0,0,0-.3,1.33,1.33,0,0,0-.24-.81,1.46,1.46,0,0,0-1.27-.57h0l-.31.05a1.72,1.72,0,0,0-.79.46,1.69,1.69,0,0,0-.35.49,1.63,1.63,0,0,0-.13.58h0A1.39,1.39,0,0,0,152.31,128.23Z" style="fill:#263238"></path><path d="M153.66,139.55a3.43,3.43,0,0,0,3.23-3.23c0-1.67-2.09-6.43-3-6.27-1.43.24-3.26,5-3.3,6.67A2.8,2.8,0,0,0,153.66,139.55Z" style="fill:#263238"></path><path d="M160,134.35a3.41,3.41,0,0,0,4.35-1.36,2.84,2.84,0,0,0-1.09-4.08c-1.49-.75-7-1-7.41-.15C155.25,130.05,158.5,133.61,160,134.35Z" style="fill:#263238"></path><path d="M147.44,135.27c1.53-.94,4.94-5.44,4.39-6.14-.83-1-5.91.17-7.44,1.12a3.14,3.14,0,0,0-1.25,4.22A3.1,3.1,0,0,0,147.44,135.27Z" style="fill:#263238"></path><path d="M147.67,121.35a3.42,3.42,0,0,0-4.33,1.41,2.8,2.8,0,0,0,1.06,4.06c1.49.72,7,1,7.41.09C152.41,125.62,149.16,122.08,147.67,121.35Z" style="fill:#263238"></path><path d="M154,116.12a3.44,3.44,0,0,0-3.22,3.24c0,1.67,2.07,6.41,3,6.25,1.43-.24,3.26-5,3.29-6.67A2.79,2.79,0,0,0,154,116.12Z" style="fill:#263238"></path></g><g id="freepik--flowers-2--inject-36"><path d="M437,238.7c3.42-.37,7.59-12,7.59-16.19a7.6,7.6,0,1,0-15.19,0C429.38,226.7,434.7,239,437,238.7Z" style="fill:#263238"></path><path d="M414.42,240.11c3.63,2.09,16.9,3.62,17.82,1.52,1.39-3.15-6.6-12.58-10.23-14.67a7.59,7.59,0,0,0-7.59,13.15Z" style="fill:#77FFC0"></path><path d="M432.41,247.2c-2-2.78-14.19-.57-17.82,1.52a7.59,7.59,0,0,0,7.59,13.15C425.81,259.77,433.76,249.05,432.41,247.2Z" style="fill:#263238"></path><path d="M437.31,249.84c-3.42.37-7.59,12-7.59,16.19a7.6,7.6,0,0,0,15.19,0C444.91,261.84,439.59,249.59,437.31,249.84Z" style="fill:#77FFC0"></path><path d="M459.87,248.43c-3.63-2.1-16.9-3.62-17.82-1.52-1.39,3.15,6.6,12.57,10.23,14.67a7.59,7.59,0,0,0,7.59-13.15Z" style="fill:#263238"></path><path d="M441.88,241.34c2,2.78,14.19.57,17.82-1.52a7.59,7.59,0,1,0-7.59-13.15C448.48,228.76,440.53,239.49,441.88,241.34Z" style="fill:#77FFC0"></path><path d="M440.86,244.27a3.72,3.72,0,1,0-3.72,3.71A3.72,3.72,0,0,0,440.86,244.27Z" style="fill:#263238"></path><path d="M440.86,244.27a3.72,3.72,0,1,0-3.72,3.71A3.72,3.72,0,0,0,440.86,244.27Z" style="fill:#263238"></path><path d="M366,65.22c3.43-.37,7.6-12,7.6-16.19a7.6,7.6,0,0,0-15.19,0C358.45,53.22,363.77,65.47,366,65.22Z" style="fill:#263238"></path><path d="M343.48,66.63c3.64,2.1,16.9,3.62,17.83,1.52,1.38-3.15-6.6-12.57-10.23-14.67a7.59,7.59,0,0,0-7.6,13.15Z" style="fill:#77FFC0"></path><path d="M361.48,73.72c-2-2.78-14.2-.57-17.83,1.52a7.59,7.59,0,1,0,7.6,13.15C354.88,86.3,362.83,75.57,361.48,73.72Z" style="fill:#263238"></path><path d="M366.38,76.36c-3.42.37-7.59,12-7.59,16.2a7.59,7.59,0,0,0,15.18,0C374,88.36,368.66,76.11,366.38,76.36Z" style="fill:#77FFC0"></path><path d="M388.94,75c-3.63-2.09-16.9-3.62-17.82-1.52-1.39,3.15,6.6,12.58,10.23,14.67A7.59,7.59,0,1,0,388.94,75Z" style="fill:#263238"></path><path d="M371,67.86c2,2.78,14.19.58,17.82-1.52a7.59,7.59,0,1,0-7.59-13.15C377.55,55.29,369.59,66,371,67.86Z" style="fill:#77FFC0"></path><path d="M369.92,70.79a3.71,3.71,0,1,0-3.71,3.71A3.71,3.71,0,0,0,369.92,70.79Z" style="fill:#263238"></path><path d="M369.92,70.79a3.71,3.71,0,1,0-3.71,3.71A3.71,3.71,0,0,0,369.92,70.79Z" style="fill:#263238"></path><path d="M138,65.22c3.42-.37,7.59-12,7.59-16.19a7.59,7.59,0,0,0-15.18,0C130.36,53.22,135.67,65.47,138,65.22Z" style="fill:#263238"></path><path d="M115.39,66.63c3.63,2.1,16.9,3.62,17.82,1.52C134.6,65,126.61,55.58,123,53.48a7.59,7.59,0,1,0-7.59,13.15Z" style="fill:#77FFC0"></path><path d="M133.38,73.72c-2-2.78-14.19-.57-17.82,1.52a7.59,7.59,0,1,0,7.59,13.15C126.78,86.3,134.74,75.57,133.38,73.72Z" style="fill:#263238"></path><path d="M138.29,76.36c-3.43.37-7.6,12-7.6,16.2a7.6,7.6,0,0,0,15.19,0C145.88,88.36,140.56,76.11,138.29,76.36Z" style="fill:#77FFC0"></path><path d="M160.85,75c-3.64-2.09-16.9-3.62-17.83-1.52-1.38,3.15,6.6,12.58,10.23,14.67A7.59,7.59,0,0,0,160.85,75Z" style="fill:#263238"></path><path d="M142.85,67.86c2,2.78,14.2.58,17.83-1.52a7.59,7.59,0,1,0-7.6-13.15C149.45,55.29,141.5,66,142.85,67.86Z" style="fill:#77FFC0"></path><path d="M141.83,70.79a3.71,3.71,0,1,0-3.71,3.71A3.71,3.71,0,0,0,141.83,70.79Z" style="fill:#263238"></path><path d="M141.83,70.79a3.71,3.71,0,1,0-3.71,3.71A3.71,3.71,0,0,0,141.83,70.79Z" style="fill:#263238"></path><path d="M255,446c3.42-.38,7.59-12,7.59-16.2a7.59,7.59,0,0,0-15.18,0C247.37,434,252.68,446.22,255,446Z" style="fill:#263238"></path><path d="M232.4,447.37c3.63,2.1,16.9,3.62,17.82,1.52,1.39-3.15-6.6-12.57-10.23-14.67a7.59,7.59,0,1,0-7.59,13.15Z" style="fill:#77FFC0"></path><path d="M250.39,454.46c-2-2.77-14.19-.57-17.82,1.53a7.59,7.59,0,1,0,7.59,13.15C243.79,467,251.75,456.31,250.39,454.46Z" style="fill:#263238"></path><path d="M255.3,457.1c-3.43.38-7.59,12-7.59,16.2a7.59,7.59,0,1,0,15.18,0C262.89,469.1,257.58,456.85,255.3,457.1Z" style="fill:#77FFC0"></path><path d="M277.86,455.69c-3.63-2.09-16.9-3.62-17.83-1.52-1.38,3.15,6.6,12.58,10.23,14.67a7.59,7.59,0,1,0,7.6-13.15Z" style="fill:#263238"></path><path d="M259.87,448.6c2,2.78,14.19.58,17.82-1.52a7.59,7.59,0,0,0-7.59-13.15C266.47,436,258.51,446.75,259.87,448.6Z" style="fill:#77FFC0"></path><path d="M258.84,451.53a3.71,3.71,0,1,0-3.71,3.71A3.71,3.71,0,0,0,258.84,451.53Z" style="fill:#263238"></path><path d="M258.84,451.53a3.71,3.71,0,1,0-3.71,3.71A3.71,3.71,0,0,0,258.84,451.53Z" style="fill:#263238"></path><path d="M66.45,238.7c3.43-.37,7.59-12,7.59-16.19a7.59,7.59,0,1,0-15.18,0C58.86,226.7,64.17,239,66.45,238.7Z" style="fill:#263238"></path><path d="M43.89,240.11c3.63,2.09,16.9,3.62,17.82,1.52,1.39-3.15-6.59-12.58-10.23-14.67a7.59,7.59,0,0,0-7.59,13.15Z" style="fill:#77FFC0"></path><path d="M61.88,247.2c-2-2.78-14.19-.57-17.82,1.52a7.59,7.59,0,0,0,7.59,13.15C55.28,259.77,63.24,249.05,61.88,247.2Z" style="fill:#263238"></path><path d="M66.79,249.84c-3.42.37-7.59,12-7.59,16.19a7.59,7.59,0,1,0,15.18,0C74.38,261.84,69.07,249.59,66.79,249.84Z" style="fill:#77FFC0"></path><path d="M89.35,248.43c-3.63-2.1-16.9-3.62-17.82-1.52-1.39,3.15,6.6,12.57,10.23,14.67a7.59,7.59,0,0,0,7.59-13.15Z" style="fill:#263238"></path><path d="M71.36,241.34c2,2.78,14.19.57,17.82-1.52a7.59,7.59,0,1,0-7.59-13.15C78,228.76,70,239.49,71.36,241.34Z" style="fill:#77FFC0"></path><path d="M70.33,244.27A3.71,3.71,0,1,0,66.62,248,3.71,3.71,0,0,0,70.33,244.27Z" style="fill:#263238"></path><path d="M70.33,244.27A3.71,3.71,0,1,0,66.62,248,3.71,3.71,0,0,0,70.33,244.27Z" style="fill:#263238"></path></g><g id="freepik--flowers-1--inject-36"><path d="M361.22,347.85a39.85,39.85,0,0,1,15.23,9.64A40.56,40.56,0,0,1,386,372.38a31.33,31.33,0,0,1,1.07,18.21c-.46,1.48-.89,3-1.46,4.4s-1.38,2.7-2.11,4a41.2,41.2,0,0,1-5.41,6.65,50,50,0,0,1-13,8.76,96.3,96.3,0,0,1-13.55,5.06c-8.94,2.64-17.63,4.51-25.47,8a39.58,39.58,0,0,0-10.73,6.74,33.35,33.35,0,0,0-7.66,10.35l-2-.74A36.72,36.72,0,0,1,312,431.08a45.27,45.27,0,0,1,10.84-9.6c8.09-5.24,16.94-8.44,24.92-12.19s15.32-7.83,19.82-13.55c4.65-5.55,5-11.37,2.31-16.83a20,20,0,0,0-14.51-10.31,16.75,16.75,0,0,0-4-.19,17,17,0,0,0-4,.5,18.55,18.55,0,0,0-6.73,2.95,7,7,0,0,0-1.25,1.06,14.56,14.56,0,0,1-1.19,1.33,9.77,9.77,0,0,1-.9,1.29,8,8,0,0,1-.61,1.31,9,9,0,0,0,.52,6.84c2.42,5.35,9,10.66,18.19,10.2l.85,2a20.44,20.44,0,0,1-15,4.69,26,26,0,0,1-15.93-7.14l-1.68-1.68-1.47-1.94a21.22,21.22,0,0,1-2.49-4.34,22.6,22.6,0,0,1-1.62-5,31.4,31.4,0,0,1-.53-5.35,42.61,42.61,0,0,1,.63-5.35c.49-1.67,1.05-3.35,1.66-5,.74-1.5,1.58-2.95,2.43-4.41a27.74,27.74,0,0,1,3.15-4.1C335,346.18,349.14,343.82,361.22,347.85Z" style="fill:#263238"></path><path d="M402.85,408.07c3.72,6,4,8.81,14.91,10.84s14.59,3.43,14.59,3.43-29.14-1.65-35.89-4.33-11.25-7.52-14.44-14.79a44.15,44.15,0,0,1-3.43-14.5s11.19,4.83,13.14,6.54C391.73,395.26,399.13,402.06,402.85,408.07Z" style="fill:#77FFC0"></path><path d="M348.19,342.16a24.2,24.2,0,0,0,14.53,12.46l2.82,16.48a9.65,9.65,0,0,1,2.87.45c3.89,1.33,11.44,14.14,10.18,17.17,0,0-2.35,3.47-11.68.6s-12.46-5.35-16.15-4.68a31.27,31.27,0,0,0-5.67,1.49s3-4.38,7-9.37a16.14,16.14,0,0,1,8.8-5.13c-2.72-1.49-6.38-4.53-10.49-10.72-8.74-13.15-9.95-15.59-8.53-21.82a79.59,79.59,0,0,0,1.49-14.22S343.22,332.07,348.19,342.16Z" style="fill:#77FFC0"></path><g style="opacity:0.39"><path d="M402.85,408.07c3.72,6,4,8.81,14.91,10.84s14.59,3.43,14.59,3.43-29.14-1.65-35.89-4.33-11.25-7.52-14.44-14.79a44.15,44.15,0,0,1-3.43-14.5s11.19,4.83,13.14,6.54C391.73,395.26,399.13,402.06,402.85,408.07Z"></path><path d="M348.19,342.16a24.2,24.2,0,0,0,14.53,12.46l2.82,16.48a9.65,9.65,0,0,1,2.87.45c3.89,1.33,11.44,14.14,10.18,17.17,0,0-2.35,3.47-11.68.6s-12.46-5.35-16.15-4.68a31.27,31.27,0,0,0-5.67,1.49s3-4.38,7-9.37a16.14,16.14,0,0,1,8.8-5.13c-2.72-1.49-6.38-4.53-10.49-10.72-8.74-13.15-9.95-15.59-8.53-21.82a79.59,79.59,0,0,0,1.49-14.22S343.22,332.07,348.19,342.16Z"></path></g><path d="M402.85,408.07c3.72,6,4,8.81,14.91,10.84s14.59,3.43,14.59,3.43-29.14-1.65-35.89-4.33-11.25-7.52-14.44-14.79a44.15,44.15,0,0,1-3.43-14.5s11.19,4.83,13.14,6.54C391.73,395.26,399.13,402.06,402.85,408.07Z" style="fill:none;stroke:#263238;stroke-linecap:round;stroke-linejoin:round"></path><path d="M348.19,342.16a24.2,24.2,0,0,0,14.53,12.46l2.82,16.48a9.65,9.65,0,0,1,2.87.45c3.89,1.33,11.44,14.14,10.18,17.17,0,0-2.35,3.47-11.68.6s-12.46-5.35-16.15-4.68a31.27,31.27,0,0,0-5.67,1.49s3-4.38,7-9.37a16.14,16.14,0,0,1,8.8-5.13c-2.72-1.49-6.38-4.53-10.49-10.72-8.74-13.15-9.95-15.59-8.53-21.82a79.59,79.59,0,0,0,1.49-14.22S343.22,332.07,348.19,342.16Z" style="fill:none;stroke:#263238;stroke-linecap:round;stroke-linejoin:round"></path><path d="M404.46,381.91l-29-3.8s-7.57-2.79-8.21-9.13,11.45-33.17,12.57-35.81-1.33-.75,4.32,13.89,18.29,32.84,19.37,33.29A1.62,1.62,0,0,1,404.46,381.91Z" style="fill:#263238;stroke:#263238;stroke-linecap:round;stroke-linejoin:round"></path><path d="M365.46,375.59s-5.7-6-6.68-12.79,2.82-14.9,6.94-20.52,5.79-8.08,5.79-8.08.4,11.43-.12,18.43-1.13,11.17-1.2,14.06.78,4.5-.49,6.62S366.28,375.43,365.46,375.59Z" style="fill:#77FFC0;stroke:#263238;stroke-linecap:round;stroke-linejoin:round"></path><path d="M428.21,404.12s-18.62.31-27.07-2.47-23.85-12-27.39-17.15-3.86-6.8-2.95-8.07,1.31-4.64,7.75-4.6,16.8,3.1,16.8,3.1,10.72,5.25,17.4,12S428.21,404.12,428.21,404.12Z" style="fill:#77FFC0;stroke:#263238;stroke-linecap:round;stroke-linejoin:round"></path><path d="M414.16,388.33c6.44,6.68,14,15.79,14,15.79s-5,.08-10.95-.22c-1.74-4.91-5.69-15.52-7.86-17.09C407.75,385.62,410.84,386.76,414.16,388.33Z" style="fill:#263238;stroke:#263238;stroke-linecap:round;stroke-linejoin:round"></path><path d="M400.82,365.19S389,333.8,388.64,329.85s-1.23-18.24-2.3-17.8-5.63,5-7.3,10.49-1.32,9.82,2.53,18.78S398.88,364.38,400.82,365.19Z" style="fill:#263238;stroke:#263238;stroke-linecap:round;stroke-linejoin:round"></path><path d="M431.15,326s4.69-6.39.69-12.24-9.73-18.5-12.34-18.32-16.05,1.76-21.57,5.27S389,311.14,389,311.14s9.34-2.05,16.36,8.1S428.18,327,431.15,326Z" style="fill:#77FFC0;stroke:#263238;stroke-linecap:round;stroke-linejoin:round"></path><path d="M454.91,374.78s5.35,8.7,7.28,12.54,3.59,7.46,1.09,8.31-14.3-.92-14.71-1.47-5.33-10-3.88-13.4S454.91,374.78,454.91,374.78Z" style="fill:#77FFC0;stroke:#263238;stroke-linecap:round;stroke-linejoin:round"></path><path d="M449,379.53a113.39,113.39,0,0,1,3.36,12.54c1.47,7.07,7.57,10.64,3.36,12.55s-23.45,4.62-29.13.34-10-9.94-13.62-14a59.81,59.81,0,0,0-7.11-6.9s12.44,2,19.46-.84,15.71-7,17-7.33S447.83,375.37,449,379.53Z" style="fill:#77FFC0;stroke:#263238;stroke-linecap:round;stroke-linejoin:round"></path><path d="M451.05,382.74s-3.75,5.15-7.8,6.81-7.88,2.78-7.88,2.78-6.27,6.18-11.89,5.1-9.57-8.48-9.57-8.48,12.47-.38,16-2.74a74.71,74.71,0,0,0,6.54-4.93L449,379.53S454.83,379.84,451.05,382.74Z" style="fill:#263238;stroke:#263238;stroke-linecap:round;stroke-linejoin:round"></path><path d="M444.83,337.15s14,5.49,15.2,9.65-3.44,17.3-5.45,18.48-9.88-14.51-10.4-17.51S444.83,337.15,444.83,337.15Z" style="fill:#77FFC0;stroke:#263238;stroke-linecap:round;stroke-linejoin:round"></path><path d="M448.65,356.47s3.55-10.92,3.79-15.12-3.12-13.72-5.5-15.6-11.73-5.54-14.43-5.15-6.68,1.13-6.68,1.13,3,17.86,6.69,21.54S448.65,356.47,448.65,356.47Z" style="fill:#77FFC0;stroke:#263238;stroke-linecap:round;stroke-linejoin:round"></path><path d="M435.51,385.68s8.51,0,10.1-.48,11.69-2.83,12.29-11.82-8.25-21.43-10.27-21.14S419.27,364.05,414,363.73s-11.09-2.23-11.95.44,3,10.74,6.81,14.88,25.46,7.23,25.46,7.23Z" style="fill:#77FFC0;stroke:#263238;stroke-linecap:round;stroke-linejoin:round"></path><path d="M420.09,391.78s-12.71-.42-18.68-5.24-11.27-4.46-18.31-21.18S379,342.14,379,342.14s12,23.8,23.75,35.31S420.09,391.78,420.09,391.78Z" style="fill:#263238;stroke:#263238;stroke-linecap:round;stroke-linejoin:round"></path><path d="M435.51,385.68s-18.26-3.62-22.18-6.81-22.2-27.05-26.38-34.05-6.06-13.2-7.17-11.65-2.41,7.95.62,15.86,10,23.34,17.43,29.23,7.42,4.8,11.57,8.55,11.78,8,19,7S435.51,385.68,435.51,385.68Z" style="fill:#77FFC0;stroke:#263238;stroke-linecap:round;stroke-linejoin:round"></path><path d="M406.86,371.07s-10.16-23.71-11.53-30.78,4.19-13.69,8.85-15.6a27.24,27.24,0,0,0,7.78-4.94s-2.2-8-6.61-10.79-16.93-2-18.56.42-4.14,9.54-2.56,19.78,3.83,14.12,6.68,19.48S406.86,371.07,406.86,371.07Z" style="fill:#77FFC0;stroke:#263238;stroke-linecap:round;stroke-linejoin:round"></path><path d="M395.33,340.29s-.77-3-.65-10.62a33.63,33.63,0,0,0-3.19-14.16" style="fill:#77FFC0;stroke:#263238;stroke-linecap:round;stroke-linejoin:round"></path><path d="M432,373.85a119.94,119.94,0,0,1-15.71,1c-7-.16-9.61-3.24-11.13-7s-4.76-12.65-4.76-12.65S419.48,358.27,432,373.85Z" style="fill:#77FFC0;stroke:#263238;stroke-linecap:round;stroke-linejoin:round"></path><path d="M432,373.85s-3.68.49-8.18.79c-4.95-5.16-15.66-15.77-23.42-19.42C400.36,355.22,419.48,358.27,432,373.85Z" style="fill:#263238;stroke:#263238;stroke-linecap:round;stroke-linejoin:round"></path><path d="M400.36,355.22s11.9,4,20.64,10.49,13.67,9.42,16.88,12.46,7.13,6.23,8.5,1.09-4.9-13-4.9-13-.71-.14-11.53-4.2S400.36,355.22,400.36,355.22Z" style="fill:#77FFC0;stroke:#263238;stroke-linecap:round;stroke-linejoin:round"></path><path d="M450.71,353.66s.58-3.81-.61-5.82-12.5-9.16-15.3-10.33,2.14,6.09-2.28,12.72a29.73,29.73,0,0,1-12,10.65l-2,.82,3.22,2.61s3.6,1.38,13.08-1.62A45.88,45.88,0,0,0,450.71,353.66Z" style="fill:#77FFC0;stroke:#263238;stroke-linecap:round;stroke-linejoin:round"></path><path d="M426.67,368.16s9.94-.05,14.81-1.92,9.23-12.58,9.23-12.58-12,8.66-18.57,9.58-10.44,1.07-10.44,1.07A8.69,8.69,0,0,0,426.67,368.16Z" style="fill:#77FFC0;stroke:#263238;stroke-linecap:round;stroke-linejoin:round"></path><path d="M406.32,356a59.66,59.66,0,0,0,4-15.4c1.3-9.46,3.15-21.47,3.69-22.76a3.9,3.9,0,0,0,.38-2.12s-9.25,7.9-13.56,10-6.88,9.09-6.21,11.83,5.17,16.65,5.7,17.67S406.32,356,406.32,356Z" style="fill:#77FFC0;stroke:#263238;stroke-linecap:round;stroke-linejoin:round"></path><path d="M432.52,350.23a9.07,9.07,0,0,0,4.84-5.47,18.56,18.56,0,0,0,1-8.17c-.87-5.17-2.35-13.13-3.68-14.2s-13.61,3.8-13.61,3.8,10.59,11.9,11.79,15.69-.33,8.35-.33,8.35Z" style="fill:#77FFC0;stroke:#263238;stroke-linecap:round;stroke-linejoin:round"></path><path d="M432.52,350.23a17.8,17.8,0,0,0,1.2-8.18c-.37-4.78-7.94-16.8-13-19.65s-7.15,1.87-8.71,3.21-5.93,13-5.73,15.19a12.24,12.24,0,0,0,3.18,7.32c2,2,8.93,5.48,9.81,5.47s9.64-.08,10.54-.45S432.52,350.23,432.52,350.23Z" style="fill:#77FFC0;stroke:#263238;stroke-linecap:round;stroke-linejoin:round"></path><path d="M414.43,315.7s4.19-2.43,7-2.88,3.77-.83,5.15,2.53,7,17.48,6.94,19.11-.07,5.92-.07,5.92S422.77,326,418.72,324.83a7.88,7.88,0,0,0-6.69.78Z" style="fill:#77FFC0;stroke:#263238;stroke-linecap:round;stroke-linejoin:round"></path><path d="M435.05,355.08s-3.73,1.35-5.57,1.22-4.28-2.17-4.28-2.17,3.43-.34,4.21-1.91,1.42-6.12,1.42-6.12S435.37,353.7,435.05,355.08Z" style="fill:#77FFC0;stroke:#263238;stroke-linecap:round;stroke-linejoin:round"></path><path d="M435.05,355.08s-3.74,4.39-6.94,5.71-9.87,1.19-11.75.53-13.41-4.85-14-5.49,6.18-23.25,6.18-23.25a168.54,168.54,0,0,0,8.88,16c2.05,3.28,7.81,5.54,7.81,5.54l4.28,2.17Z" style="fill:#77FFC0;stroke:#263238;stroke-linecap:round;stroke-linejoin:round"></path><path d="M430.83,346.1a26.91,26.91,0,0,0-1.3-5.35c-.88-2.14-4.46-7.81-8.34-9.44s-5-.44-6.49.7-5.48,1.46-5,3.06S419,351.66,419,351.66l6.19,2.47a3.61,3.61,0,0,0,4.21-1.91A13.3,13.3,0,0,0,430.83,346.1Z" style="fill:#77FFC0;stroke:#263238;stroke-linecap:round;stroke-linejoin:round"></path><path d="M429.41,352.22s-5.41-2.07-7.39-3.63a2.74,2.74,0,0,1-.59-.6c-1-1.55-.39-5.73.77-6.38s4.63,3.45,4.86,4.43.14,2.09-1.21,2.28a1.48,1.48,0,0,1-1.72-.72" style="fill:none;stroke:#263238;stroke-linecap:round;stroke-linejoin:round"></path><path d="M413.33,342.05s1.58-3.87,4.08-5.61,5.1-1.92,7.19,1.87a20.74,20.74,0,0,1,2.46,6.63" style="fill:none;stroke:#263238;stroke-linecap:round;stroke-linejoin:round"></path><path d="M365.46,375.59s2.81,3,5.34.84,7.35-31.84,9-43.26,6.33-23,8.51-23.35,3.37.4,5.2-1.24a12.12,12.12,0,0,0,3.22-6.5c.2-1.68-6.53-6.78-11.12-9.71s-4.81-6.06-8.27-2.32-6.76,12.23-6.17,14.13,4.14,3.12,3.81,3.61-2.57.7-2.86,2.6-1.37,15.38-1.92,19.71-5.66,25.35-5.56,26.91,2.21,4.09,1.95,5.63S371.82,369.77,365.46,375.59Z" style="fill:#77FFC0;stroke:#263238;stroke-linecap:round;stroke-linejoin:round"></path><path d="M146.33,347.85a39.78,39.78,0,0,0-15.23,9.64,40.71,40.71,0,0,0-9.56,14.89,31.33,31.33,0,0,0-1.07,18.21c.46,1.48.89,3,1.46,4.4s1.39,2.7,2.11,4a41.74,41.74,0,0,0,5.41,6.65,50.19,50.19,0,0,0,13,8.76A96.87,96.87,0,0,0,156,419.48c8.94,2.64,17.62,4.51,25.46,8a39.42,39.42,0,0,1,10.73,6.74,33.35,33.35,0,0,1,7.66,10.35l2.05-.74a36.75,36.75,0,0,0-6.32-12.74,45,45,0,0,0-10.83-9.6c-8.09-5.24-16.94-8.44-24.92-12.19S144.5,401.46,140,395.74c-4.65-5.55-5-11.37-2.3-16.83a19.94,19.94,0,0,1,14.5-10.31,16.83,16.83,0,0,1,4-.19,17.08,17.08,0,0,1,4,.5,18.55,18.55,0,0,1,6.73,2.95,7,7,0,0,1,1.25,1.06,13.21,13.21,0,0,0,1.19,1.33,8.9,8.9,0,0,0,.9,1.29,7.25,7.25,0,0,0,.61,1.31,9,9,0,0,1-.53,6.84c-2.42,5.35-9,10.66-18.19,10.2l-.84,2a20.42,20.42,0,0,0,15,4.69,26,26,0,0,0,15.92-7.14l1.68-1.68,1.48-1.94a21.69,21.69,0,0,0,2.49-4.34,22.6,22.6,0,0,0,1.62-5,33.56,33.56,0,0,0,.53-5.35,42.64,42.64,0,0,0-.64-5.35c-.48-1.67-1-3.35-1.65-5-.75-1.5-1.58-2.95-2.43-4.41a27.81,27.81,0,0,0-3.16-4.1C172.58,346.18,158.41,343.82,146.33,347.85Z" style="fill:#263238"></path><path d="M104.7,408.07c-3.72,6-4,8.81-14.91,10.84s-14.59,3.43-14.59,3.43,29.14-1.65,35.88-4.33,11.25-7.52,14.44-14.79a44,44,0,0,0,3.44-14.5s-11.19,4.83-13.15,6.54C115.81,395.26,108.42,402.06,104.7,408.07Z" style="fill:#77FFC0"></path><path d="M159.35,342.16a24.2,24.2,0,0,1-14.53,12.46L142,371.1a9.6,9.6,0,0,0-2.87.45c-3.9,1.33-11.45,14.14-10.18,17.17,0,0,2.34,3.47,11.68.6s12.45-5.35,16.15-4.68a31.27,31.27,0,0,1,5.67,1.49s-3-4.38-7-9.37a16.14,16.14,0,0,0-8.8-5.13c2.72-1.49,6.37-4.53,10.48-10.72,8.75-13.15,10-15.59,8.54-21.82a79,79,0,0,1-1.5-14.22S164.33,332.07,159.35,342.16Z" style="fill:#77FFC0"></path><g style="opacity:0.39"><path d="M104.7,408.07c-3.72,6-4,8.81-14.91,10.84s-14.59,3.43-14.59,3.43,29.14-1.65,35.88-4.33,11.25-7.52,14.44-14.79a44,44,0,0,0,3.44-14.5s-11.19,4.83-13.15,6.54C115.81,395.26,108.42,402.06,104.7,408.07Z"></path><path d="M159.35,342.16a24.2,24.2,0,0,1-14.53,12.46L142,371.1a9.6,9.6,0,0,0-2.87.45c-3.9,1.33-11.45,14.14-10.18,17.17,0,0,2.34,3.47,11.68.6s12.45-5.35,16.15-4.68a31.27,31.27,0,0,1,5.67,1.49s-3-4.38-7-9.37a16.14,16.14,0,0,0-8.8-5.13c2.72-1.49,6.37-4.53,10.48-10.72,8.75-13.15,10-15.59,8.54-21.82a79,79,0,0,1-1.5-14.22S164.33,332.07,159.35,342.16Z"></path></g><path d="M104.7,408.07c-3.72,6-4,8.81-14.91,10.84s-14.59,3.43-14.59,3.43,29.14-1.65,35.88-4.33,11.25-7.52,14.44-14.79a44,44,0,0,0,3.44-14.5s-11.19,4.83-13.15,6.54C115.81,395.26,108.42,402.06,104.7,408.07Z" style="fill:none;stroke:#263238;stroke-linecap:round;stroke-linejoin:round"></path><path d="M159.35,342.16a24.2,24.2,0,0,1-14.53,12.46L142,371.1a9.6,9.6,0,0,0-2.87.45c-3.9,1.33-11.45,14.14-10.18,17.17,0,0,2.34,3.47,11.68.6s12.45-5.35,16.15-4.68a31.27,31.27,0,0,1,5.67,1.49s-3-4.38-7-9.37a16.14,16.14,0,0,0-8.8-5.13c2.72-1.49,6.37-4.53,10.48-10.72,8.75-13.15,10-15.59,8.54-21.82a79,79,0,0,1-1.5-14.22S164.33,332.07,159.35,342.16Z" style="fill:none;stroke:#263238;stroke-linecap:round;stroke-linejoin:round"></path><path d="M103.09,381.91l29-3.8s7.57-2.79,8.21-9.13-11.46-33.17-12.57-35.81,1.32-.75-4.33,13.89-18.28,32.84-19.36,33.29A1.61,1.61,0,0,0,103.09,381.91Z" style="fill:#263238;stroke:#263238;stroke-linecap:round;stroke-linejoin:round"></path><path d="M142.09,375.59s5.69-6,6.67-12.79-2.81-14.9-6.93-20.52S136,334.2,136,334.2s-.41,11.43.11,18.43,1.13,11.17,1.2,14.06-.77,4.5.5,6.62S141.26,375.43,142.09,375.59Z" style="fill:#77FFC0;stroke:#263238;stroke-linecap:round;stroke-linejoin:round"></path><path d="M79.34,404.12s18.61.31,27.07-2.47,23.84-12,27.38-17.15,3.86-6.8,3-8.07-1.3-4.64-7.75-4.6-16.8,3.1-16.8,3.1-10.72,5.25-17.4,12S79.34,404.12,79.34,404.12Z" style="fill:#77FFC0;stroke:#263238;stroke-linecap:round;stroke-linejoin:round"></path><path d="M93.38,388.33c-6.44,6.68-14,15.79-14,15.79s5,.08,10.94-.22C92,399,96,388.38,98.15,386.81,99.79,385.62,96.71,386.76,93.38,388.33Z" style="fill:#263238;stroke:#263238;stroke-linecap:round;stroke-linejoin:round"></path><path d="M106.73,365.19s11.8-31.39,12.17-35.34,1.23-18.24,2.3-17.8,5.63,5,7.3,10.49,1.33,9.82-2.52,18.78S108.67,364.38,106.73,365.19Z" style="fill:#263238;stroke:#263238;stroke-linecap:round;stroke-linejoin:round"></path><path d="M76.4,326s-4.7-6.39-.69-12.24,9.73-18.5,12.33-18.32,16.06,1.76,21.58,5.27,8.92,10.45,8.92,10.45-9.33-2.05-16.35,8.1S79.36,327,76.4,326Z" style="fill:#77FFC0;stroke:#263238;stroke-linecap:round;stroke-linejoin:round"></path><path d="M52.64,374.78s-5.35,8.7-7.29,12.54-3.59,7.46-1.08,8.31,14.3-.92,14.7-1.47,5.33-10,3.89-13.4S52.64,374.78,52.64,374.78Z" style="fill:#77FFC0;stroke:#263238;stroke-linecap:round;stroke-linejoin:round"></path><path d="M58.55,379.53a113.39,113.39,0,0,0-3.36,12.54c-1.48,7.07-7.58,10.64-3.36,12.55S75.28,409.24,81,405s10-9.94,13.61-14a60.3,60.3,0,0,1,7.12-6.9s-12.44,2-19.47-.84-15.7-7-17-7.33S59.72,375.37,58.55,379.53Z" style="fill:#77FFC0;stroke:#263238;stroke-linecap:round;stroke-linejoin:round"></path><path d="M56.49,382.74s3.75,5.15,7.81,6.81,7.88,2.78,7.88,2.78,6.26,6.18,11.89,5.1S93.64,389,93.64,389s-12.48-.38-16-2.74a74,74,0,0,1-6.55-4.93l-12.52-1.75S52.72,379.84,56.49,382.74Z" style="fill:#263238;stroke:#263238;stroke-linecap:round;stroke-linejoin:round"></path><path d="M62.72,337.15s-14,5.49-15.21,9.65S51,364.1,53,365.28s9.87-14.51,10.39-17.51S62.72,337.15,62.72,337.15Z" style="fill:#77FFC0;stroke:#263238;stroke-linecap:round;stroke-linejoin:round"></path><path d="M58.9,356.47s-3.56-10.92-3.8-15.12,3.13-13.72,5.51-15.6S72.34,320.21,75,320.6s6.68,1.13,6.68,1.13-3,17.86-6.69,21.54S58.9,356.47,58.9,356.47Z" style="fill:#77FFC0;stroke:#263238;stroke-linecap:round;stroke-linejoin:round"></path><path d="M72,385.68s-8.51,0-10.1-.48-11.69-2.83-12.29-11.82S57.9,352,59.92,352.24s28.35,11.81,33.66,11.49,11.09-2.23,12,.44-3,10.74-6.82,14.88-25.45,7.23-25.45,7.23Z" style="fill:#77FFC0;stroke:#263238;stroke-linecap:round;stroke-linejoin:round"></path><path d="M87.46,391.78s12.7-.42,18.67-5.24,11.28-4.46,18.32-21.18,4.07-23.22,4.07-23.22-11.94,23.8-23.74,35.31S87.46,391.78,87.46,391.78Z" style="fill:#263238;stroke:#263238;stroke-linecap:round;stroke-linejoin:round"></path><path d="M72,385.68s18.26-3.62,22.18-6.81,22.21-27.05,26.38-34.05,6.07-13.2,7.18-11.65,2.4,7.95-.62,15.86-10,23.34-17.44,29.23-7.41,4.8-11.56,8.55-11.79,8-19,7S72,385.68,72,385.68Z" style="fill:#77FFC0;stroke:#263238;stroke-linecap:round;stroke-linejoin:round"></path><path d="M100.68,371.07s10.16-23.71,11.53-30.78-4.18-13.69-8.84-15.6a27.06,27.06,0,0,1-7.78-4.94s2.2-8,6.6-10.79,16.94-2,18.56.42,4.15,9.54,2.56,19.78-3.82,14.12-6.68,19.48S100.68,371.07,100.68,371.07Z" style="fill:#77FFC0;stroke:#263238;stroke-linecap:round;stroke-linejoin:round"></path><path d="M112.21,340.29s.78-3,.66-10.62a33.63,33.63,0,0,1,3.19-14.16" style="fill:#77FFC0;stroke:#263238;stroke-linecap:round;stroke-linejoin:round"></path><path d="M75.58,373.85a119.94,119.94,0,0,0,15.71,1c7-.16,9.61-3.24,11.14-7s4.75-12.65,4.75-12.65S88.07,358.27,75.58,373.85Z" style="fill:#77FFC0;stroke:#263238;stroke-linecap:round;stroke-linejoin:round"></path><path d="M75.58,373.85s3.68.49,8.19.79c5-5.16,15.65-15.77,23.41-19.42C107.18,355.22,88.07,358.27,75.58,373.85Z" style="fill:#263238;stroke:#263238;stroke-linecap:round;stroke-linejoin:round"></path><path d="M107.18,355.22s-11.9,4-20.64,10.49-13.66,9.42-16.87,12.46-7.13,6.23-8.51,1.09,4.91-13,4.91-13,.71-.14,11.52-4.2S107.18,355.22,107.18,355.22Z" style="fill:#77FFC0;stroke:#263238;stroke-linecap:round;stroke-linejoin:round"></path><path d="M56.84,353.66s-.58-3.81.6-5.82,12.5-9.16,15.3-10.33S70.6,343.6,75,350.23a29.73,29.73,0,0,0,12.06,10.65l2,.82-3.21,2.61s-3.6,1.38-13.08-1.62A45.88,45.88,0,0,1,56.84,353.66Z" style="fill:#77FFC0;stroke:#263238;stroke-linecap:round;stroke-linejoin:round"></path><path d="M80.88,368.16s-9.94-.05-14.81-1.92-9.23-12.58-9.23-12.58,12,8.66,18.56,9.58,10.45,1.07,10.45,1.07A8.73,8.73,0,0,1,80.88,368.16Z" style="fill:#77FFC0;stroke:#263238;stroke-linecap:round;stroke-linejoin:round"></path><path d="M101.22,356a59.93,59.93,0,0,1-4-15.4c-1.3-9.46-3.16-21.47-3.7-22.76a4,4,0,0,1-.38-2.12s9.25,7.9,13.56,10,6.89,9.09,6.22,11.83-5.18,16.65-5.71,17.67S101.22,356,101.22,356Z" style="fill:#77FFC0;stroke:#263238;stroke-linecap:round;stroke-linejoin:round"></path><path d="M75,350.23a9.08,9.08,0,0,1-4.83-5.47,18.42,18.42,0,0,1-1-8.17c.87-5.17,2.35-13.13,3.68-14.2s13.62,3.8,13.62,3.8S75.9,338.09,74.7,341.88s.32,8.35.32,8.35Z" style="fill:#77FFC0;stroke:#263238;stroke-linecap:round;stroke-linejoin:round"></path><path d="M75,350.23a18,18,0,0,1-1.2-8.18c.38-4.78,7.94-16.8,13-19.65s7.14,1.87,8.7,3.21,5.93,13,5.73,15.19a12.22,12.22,0,0,1-3.17,7.32c-2,2-8.94,5.48-9.81,5.47s-9.64-.08-10.54-.45S75,350.23,75,350.23Z" style="fill:#77FFC0;stroke:#263238;stroke-linecap:round;stroke-linejoin:round"></path><path d="M93.11,315.7s-4.18-2.43-7-2.88-3.76-.83-5.14,2.53-7,17.48-7,19.11.08,5.92.08,5.92S84.77,326,88.83,324.83a7.85,7.85,0,0,1,6.68.78Z" style="fill:#77FFC0;stroke:#263238;stroke-linecap:round;stroke-linejoin:round"></path><path d="M72.5,355.08s3.73,1.35,5.57,1.22,4.28-2.17,4.28-2.17-3.43-.34-4.22-1.91-1.41-6.12-1.41-6.12S72.17,353.7,72.5,355.08Z" style="fill:#77FFC0;stroke:#263238;stroke-linecap:round;stroke-linejoin:round"></path><path d="M72.5,355.08s3.73,4.39,6.94,5.71,9.86,1.19,11.74.53,13.41-4.85,14-5.49S99,332.58,99,332.58a171.28,171.28,0,0,1-8.88,16c-2.06,3.28-7.81,5.54-7.81,5.54l-4.28,2.17Z" style="fill:#77FFC0;stroke:#263238;stroke-linecap:round;stroke-linejoin:round"></path><path d="M76.72,346.1a26.16,26.16,0,0,1,1.3-5.35c.88-2.14,4.45-7.81,8.33-9.44s5-.44,6.5.7,5.48,1.46,5,3.06-9.31,16.59-9.31,16.59l-6.19,2.47a3.63,3.63,0,0,1-4.22-1.91A13.22,13.22,0,0,1,76.72,346.1Z" style="fill:#77FFC0;stroke:#263238;stroke-linecap:round;stroke-linejoin:round"></path><path d="M78.13,352.22s5.42-2.07,7.39-3.63a2.53,2.53,0,0,0,.59-.6c1-1.55.39-5.73-.77-6.38s-4.63,3.45-4.85,4.43-.14,2.09,1.2,2.28a1.5,1.5,0,0,0,1.73-.72" style="fill:none;stroke:#263238;stroke-linecap:round;stroke-linejoin:round"></path><path d="M94.22,342.05s-1.58-3.87-4.08-5.61S85,334.52,83,338.31a20.94,20.94,0,0,0-2.47,6.63" style="fill:none;stroke:#263238;stroke-linecap:round;stroke-linejoin:round"></path><path d="M142.09,375.59s-2.82,3-5.35.84-7.35-31.84-9-43.26-6.34-23-8.51-23.35-3.38.4-5.2-1.24a12.07,12.07,0,0,1-3.23-6.5c-.2-1.68,6.53-6.78,11.13-9.71s4.8-6.06,8.27-2.32,6.76,12.23,6.16,14.13-4.14,3.12-3.8,3.61,2.57.7,2.86,2.6,1.37,15.38,1.91,19.71S143,355.45,142.92,357s-2.21,4.09-1.95,5.63S135.73,369.77,142.09,375.59Z" style="fill:#77FFC0;stroke:#263238;stroke-linecap:round;stroke-linejoin:round"></path></g></svg>
